<?xml version="1.0" encoding="utf-8"?>
<!-- Generator: Adobe Illustrator 15.1.0, SVG Export Plug-In . SVG Version: 6.00 Build 0)  -->
<!DOCTYPE svg PUBLIC "-//W3C//DTD SVG 1.1//EN" "http://www.w3.org/Graphics/SVG/1.1/DTD/svg11.dtd">
<svg version="1.1" xmlns="http://www.w3.org/2000/svg" xmlns:xlink="http://www.w3.org/1999/xlink" x="0px" y="0px"
	 width="336.63px" height="297.636px" viewBox="0 0 336.63 297.636" enable-background="new 0 0 336.63 297.636"
	 xml:space="preserve">
<g id="Layer_1">
	<path fill-rule="evenodd" clip-rule="evenodd" fill="#DC0032" d="M66.957,246.391c0.535-0.084,0.984-0.407,0.757-0.969
		c-0.28-0.692-1.851-0.457-2.024,0.207C65.53,246.239,66.306,246.492,66.957,246.391 M60.26,259.412
		c0.336,1.023,0.602,1.569,1.746,1.291c0.684-0.165,1.158-0.649,1.602-1.164c0.116-0.134,1.24-1.624,1.116-1.645
		c0.072,0.012,0.13-0.012,0.175-0.069c1.149,1.511,2.922-0.611,3.664-1.612c0.394-0.529,0.633-0.939,0.884-1.551
		c0.095-0.233,0.131-0.733,0.42-0.767c0.041,0.186,0.029,0.395,0.01,0.588c0.024-0.001-0.181,0.908-0.161,0.896
		c-0.11,0.674-0.27,0.521-0.029,1.205c0.315,0.896,0.786,0.127,1.082-0.227c0.429-0.512,0.613-0.919,0.906-1.508
		c0.421-0.85,0.709-1.991,1.46-2.618c0.238-0.199,0.414-0.228,0.596,0.013c0.338,0.444,0.143,1.419,0.114,1.929
		c-0.013,0.246-0.057,0.507-0.054,0.752c0.007,0.738,0.105,1.412,0.2,2.142c0.035,0.267,0.007,0.615,0.259,0.776
		c0.257,0.163,0.687,0.018,0.834-0.231c0.192-0.328-0.088-0.816-0.152-1.153c-0.173-0.912-0.033-1.844-0.1-2.764
		c-0.054-0.734,0-1.863-0.582-2.408c-0.703-0.658-1.631,0.01-2.056,0.647c-0.257,0.385-0.543,0.75-0.761,1.159
		c-0.162,0.307-0.148,0.697-0.367,0.971c-0.458-0.287,0.232-1.407-0.046-1.891c-0.676-1.175-1.659,0.423-1.893,1.013
		c-0.347,0.876-0.685,1.761-1.247,2.526c-0.372,0.507-0.928,1.225-1.529,1.459c-1.097,0.431-0.767-1.313-0.719-1.824
		c0.062-0.664,0.096-1.353,0.104-2.021c0.004-0.398-0.092-0.801-0.504-0.379c-0.649,0.663-0.471,1.924-0.64,2.779
		c-0.146,0.735-0.461,1.395-0.807,2.054c-0.27,0.513-1.701,2.614-2.434,1.812c-0.437-0.479-0.382-1.465-0.374-2.063
		c0.007-0.574,0.025-1.168,0.117-1.737c0.183-1.134,0.174-2.259,0.254-3.401c0.024-0.351,0.121-0.978,0.257-1.291
		c0.047-0.107,0.76-0.695,0.758-0.698c0.019,0.042,0.411-0.289,0.562-0.39c0.069-0.03,2.149-1.005,2.448-1.055
		c0.312-0.052,1.219,0.064,0.964-0.542c-0.136-0.322-0.47-0.321-0.769-0.285c-0.851,0.104-1.705,0.626-2.478,0.972
		c-0.464,0.207-1.091,0.719-1.528,0.983c0.082-0.05,0.428-1.623,0.452-1.781c0.054-0.358,0.081-0.936-0.43-0.915
		c-0.305,0.012-0.502,0.396-0.579,0.642c-0.243,0.765-0.027,1.592-0.264,2.357c-0.301,0.974-2.254,1.499-3.096,1.771
		c-0.609,0.196-1.457,0.666-1.105,1.448c0.678,1.501,2.442-1.311,3.325-1.143c1.079,0.206,0.451,2.274,0.325,3.021
		c-0.191,1.121-0.423,2.254-0.848,3.312c-0.23,0.573-0.356,1.212-0.632,1.763c-0.085,0.167-0.449,0.551-0.406,0.748
		c-0.237-1.09-0.466-2.099-0.917-3.133c-0.322-0.737-1.405-1.872-1.994-0.832c-0.39,0.688-0.453,1.505-0.715,2.237
		c-0.31,0.863-0.57,1.735-0.815,2.615c0,0-0.103,0.233-0.608,1.29c0.248-0.662-0.539,1.166-1.686,0.779
		c-0.808-0.272-0.859-0.437-0.823-1.281c0.045-1.074,0.734-2.366,0.016-3.361c-0.281-0.388-0.781-0.354-1.134-0.099
		c-0.449,0.326-0.499,0.847-0.5,1.363c-0.001,1.415,0.481,2.732-0.174,4.064c-0.45,0.916-1.332,2.105-2.518,1.579
		c-1.08-0.479-0.959-1.946-0.837-2.906c0.065-0.514,0.135-1.034,0.232-1.543c0.205-1.081,0.554-1.971-0.255-1.847
		c-0.488,0.074-0.699,1.033-0.778,1.397c-0.173,0.796-0.175,1.628-0.119,2.435c0.082,1.195,0.25,2.713,1.317,3.466
		c1.017,0.718,1.919,0.08,2.63-0.705c0.167-0.184,1.665-2.007,1.455-2.152c0.53,0.369,0.856,0.839,1.625,0.845
		c2.927,0.021,3.651-3.409,4.003-5.681c0.046-0.294,0.111-1.548,0.541-1.577c0.198-0.014,0.669,0.655,0.76,0.805
		c0.236,0.386,0.347,0.842,0.428,1.281c0.113,0.605,0.34,1.803-0.29,2.216c-0.179,0.118-0.324,0.062-0.518,0.058
		c-0.311-0.01-0.8,0.131-1.027,0.355c-0.278,0.274-0.176,0.812,0.095,1.052c0.63,0.556,1.252-0.118,1.802-0.347
		c1.013-0.422,1.661-1.509,2.015-2.491c0.119-0.329,0.315-0.696,0.389-1.02C59.964,259.912,60.056,259.586,60.26,259.412
		 M136.595,218.118c0.011,0,0.024-0.003,0.046-0.009c0.005-0.002,0.013-0.002,0.019-0.005c-0.014,0.003-0.03,0.005-0.046,0.008
		C136.605,218.115,136.601,218.115,136.595,218.118 M130.462,226.893c-0.018,0.024-0.033,0.046-0.044,0.063
		c-0.002,0.019-0.003,0.038-0.005,0.062c0.044-0.035,0.109-0.096,0.131-0.1C130.533,226.92,130.492,226.904,130.462,226.893
		 M129.13,218.877c0.018-0.038,0.037-0.072,0.056-0.106c0.002-0.005,0.004-0.011,0.007-0.018
		C129.13,218.756,129.141,218.827,129.13,218.877 M184.271,198.372c-0.782-0.978-1.678-1.596-2.862-1.848
		c-1.274-0.271-2.278-0.156-3.56,0.038c-1.501,0.227-2.958,0.638-4.393,1.127c-1.077,0.368-2.137,0.782-3.182,1.23
		c-3.356,1.442-6.661,3.004-9.889,4.718c-2.43,1.289-7.176,4.355-7.176,4.355s-1.48,0.802-2.183,1.319
		c-0.613,0.45-1.269,0.835-1.875,1.297c-0.351,0.268-1.28,1.159-1.444,0.26c-0.066-0.364-0.04-0.836,0.048-1.196
		c0.139-0.568,0.238-0.968,0.337-1.578c0.115-0.714,0.13-1.438,0.166-2.158c0.018-0.363-0.033-0.913-0.121-1.27
		c-0.202-0.819-0.822-1.062-1.135-0.069c-0.231,0.731-0.152,1.554-0.154,2.309c-0.003,0.9-0.073,1.796-0.188,2.689
		c-0.061,0.472-0.135,0.941-0.215,1.41c-0.031,0.178-0.071,0.951-0.223,1.059c-0.071,0.675-0.071,0.675-1.819,1.559
		c-0.89,0.449-1.793,0.874-2.712,1.26c-0.728,0.305-2.088,1.254-2.823,0.635c-0.508-0.43-0.416-1.464-0.393-2.045
		c0.061-1.509,0.433-2.976,0.791-4.434c0.452-1.837,0.211-3.011-0.388-2.689c-0.816,0.702-1.293,3.231-1.397,6.55
		c-0.103,3.318,0.587,2.894-1.187,3.812c-1.123,0.582-2.482,0.697-3.707,0.948c-2.784,0.569-3.042,0.451-3.402,1.11
		c-0.097,0.214-0.171,0.423-0.058,0.567c0-0.034,0.052-0.072,0.065,0c0.853,2.911,4.111,4.232,6.01,6.34
		c0.642,0.713,0.805,1.449,0.59,2.391c-0.291,1.275-1.5,4.039-3.121,4.035c-2.073-0.005-1.326-2.494-0.958-3.62
		c0.357-1.09,0.702-2.278-0.345-3.111c-1.606-1.277-1.699,1.825-1.697,2.758c0.002,1.833-0.737,6.568-3.593,6.124
		c-2.204-0.343-0.625-2.715-0.25-3.777c0.741-2.099,1.166-4.295,1.303-6.513c0.076-1.214,0.014-3.033-1.453-3.391
		c-0.695-0.17-1.068,0.315-1.348,0.867c-1.131,2.24-1.306,4.74-1.267,7.209c0.018,1.175,0.137,2.357,0.094,3.534
		c-0.042,1.14-0.646,2.052-1.303,3.015c-0.375,0.548-2.621,2.65-3.307,1.677c-0.173-0.245,0.108-1.132,0.109-1.432
		c0.002-0.637-0.041-1.934-0.731-2.198c-0.608-0.232-1.63,0.455-2.045,0.833c-0.462,0.422-0.522,1.732-0.654,2.301
		c-0.537,0.908-0.411,3.105-1.835,2.271c-1.453-0.85-0.15-2.766-1.423-3.521c-0.761-0.45-2.149-0.043-2.809,0.423
		c-0.784,0.553-1.281,1.419-1.845,2.173c-0.413,0.551-0.846,1.104-1.213,1.688c-0.924,1.473-2.771,3.578-4.253,4.508
		c-0.992,0.622-2.296,1.188-3.344,0.328c-1.022-0.839-1.241-2.68-0.396-3.957c1.637-2.473,3.556,1.373,3.458-0.226
		c-0.065-1.065-1.807-2.528-2.802-2.623c0.266,0.649-0.231,0.867-0.712,1.143c-0.594,0.342-0.922,0.846-1.152,1.488
		c-0.191,0.529-0.362,1.262-0.37,1.821c-0.017,1.375,0.599,3.485,1.936,4.106c1.09,0.508,2.26,0.241,3.261-0.353
		c0.737-0.438,1.356-1.277,1.94-1.888c0.563-0.589,1.025-1.265,1.587-1.854c0.51-0.534,0.92-1.179,1.462-1.68
		c0.236-0.219,1.067-1.423,1.136-1.113c0.07,0.311,0.363,2.926,1.916,2.91c0.926-0.011,1.48-0.9,1.79-1.66
		c0.186-0.455,0.344-0.744,0.463-1.52c0.862,0.343,1.679,1.786,2.977,0.861c0.833-0.593,0.952-2.205,1.064-3.144l0.146-0.894
		c0.11-0.473,0.834-1.582,1.239-0.857c-0.079,0.881-0.324,2.033-0.221,2.796c0.293,2.173,3.198,0.497,4.647-0.924
		c1.379-2.027,0.98-2.076,1.925-2.411c0.655-0.232,1.545,0.702,2.193,0.841c1.275,0.273,2.121-0.456,2.942-1.299
		c0.208-0.213,1.719-1.547,1.559-1.879c0.647,1.297,2.291,1.598,3.548,1.089c1.407-0.57,2.005-2.063,2.414-3.416
		c0.059-0.198,0.849-2.754,1.059-2.609c1.534,1.084,2.831,2.47,4.36,3.567c1.052,0.754,2.715,2.098,4.118,1.819
		c1.691-0.337,1.059-1.36,0.632-3.719c-0.215-1.403-0.271-2.967-0.271-2.967l0.585-8.312c0,0,0.393-3.369,0.65-3.508
		c0.025-0.013,0.259-0.825,0.397-0.968c0.277-0.287,0.643-0.475,0.968-0.701c0.957-0.661,1.918-1.345,2.872-2.019
		c3.113-2.198,6.017-3.912,9.356-5.734c0.999-0.544,2.058-0.962,3.09-1.435c1.891-0.865,3.67-1.951,5.543-2.854
		c1.931-0.931,3.95-1.47,6.007-2.044c1.179-0.328,2.427-0.478,3.631-0.414c1.117,0.061,2.398,0.167,3.295,0.909
		c0.432,0.357,1.271,1.247,0.449,1.59c-0.396,0.164-2.022-0.111-1.788,0.636c0.346,1.099,2.069,0.604,2.776,0.354
		C185.557,200.718,184.923,199.189,184.271,198.372 M110.149,240.574c-0.24,0.383-1-0.154-1.119-0.384
		c-0.194-0.376-0.198-0.935-0.175-1.347c0.003-0.051,0.007-0.101,0.011-0.152c0.079-0.822,0.426-1.778,1.141-2.239
		c0.112-0.072,1.346-0.344,1.311-0.165C111.021,237.809,110.847,239.453,110.149,240.574 M124.058,230.768
		c-0.253,0.018-0.136-1.435,0.015-2.719c0.108-0.928,0.236-1.768,0.254-1.903c0.173-1.248,0.313-2.917,1.105-3.948
		c0.136-0.178,0.51,0.916,0.518,0.974c0.072,0.457,0.004,0.964-0.044,1.42c-0.14,1.326-0.344,2.661-0.749,3.935
		C125.04,228.893,124.521,230.735,124.058,230.768 M130.557,229.274c-0.119,0.021-0.167-1.74-0.144-2.257
		c-0.045,0.036-0.065,0.043,0.005-0.062c0.001-0.034,0.005-0.062,0.008-0.074c0.002-0.002,0.018,0.004,0.036,0.011
		c0.044-0.062,0.104-0.146,0.192-0.262C131.414,224.825,131.85,228.052,130.557,229.274 M137.095,222.346
		c-0.022,0.782-0.155,2.611-1.392,2.268c-1.118-0.31-1.717-0.832-2.696-1.893c-0.979-1.062-1.284-1.41-1.811-1.989
		c-0.362-0.397-0.511-0.689-0.47-0.914c0.226-1.242,3.063-1.154,3.986-1.411c0.541-0.151,0.541-0.151,1.698-0.386
		C137.566,217.784,137.372,218.468,137.095,222.346 M145.428,230.766c-0.281,0.124-2.039-0.573-1.973-0.709
		c0.289-0.594,0.713-1.103,1.02-1.728c0.08-0.16,0.136-0.339,0.188-0.521c0.124-0.429,0.23-0.879,0.564-1.16
		c-0.196,0.165,0.135,1.29,0.325,2.658C145.742,230.673,146.112,230.462,145.428,230.766 M145.8,217.706
		c0,0-0.275,5.275-1.147,7.817c-0.431,1.253-0.822,3.246-2.45,3.399c-1.428,0.136-2.754-1.329-3.415-2.402
		c-0.715-1.161-0.684-2.574-0.662-3.901c-0.054-5.189,0.361-4.977,1.727-6.008c1.014-0.414,3.445-1.559,3.445-1.559l2.286-1.051
		c0.227,0.01,0.043-0.11,0.444-0.119C145.971,215.896,145.8,217.706,145.8,217.706 M70.562,286.747
		c-0.043,0.024-0.087,0.046-0.13,0.065C70.482,286.798,70.56,286.81,70.562,286.747 M102.917,253.481
		c-2.039-0.853-4.004-1.873-6.044-2.72c-4.994-2.073-11.225-4.393-14.668-8.793c-2.553-3.263-1.716-6.891,0.12-10.214
		c0.828-1.499,1.922-2.823,2.85-4.259c0.027,0.046-0.042,0.1-0.015,0.158c0.718-1.105,1.685-2.091,2.767-2.84
		c0.802-0.555,1.66-1.024,2.546-1.432c1.545-0.709,3.17-1.225,4.79-1.729c1.671-0.519,3.31-1.132,4.976-1.662
		c2.311-0.732,4.761-1.288,7.136-1.776c2.677-0.551,5.624-0.885,8.281-0.056c0.537,0.168,1.119,0.539,1.699,0.452
		c0.939-0.14,0.721-1.084,0.173-1.507c-0.499-0.385-1.172-0.517-1.763-0.692c-1.667-0.493-3.198-1.288-4.914-1.633
		c-1.76-0.354-3.572-0.407-5.362-0.356c-3.82,0.11-8.027,0.754-11.285,2.877c-1.343,0.876-2.576,1.917-3.803,2.946
		c-2.212,1.857-4.704,4.057-7.359,5.26c-5.007,2.271-8.282,4.273-10.693,5.674c-6.202,3.6-11.553,7.16-17.505,11.142
		c-2.217,1.483-4.212,3.261-6.282,4.938c-0.993,0.804-1.484,1.193-3.111,2.324c-1.626,1.13-1.185,0.803-2.825,1.409
		c0.269-1.659,2.002-3.051,2.939-4.374c1.282-1.81,2.354-3.759,3.651-5.559c1.591-2.207,2.408-3.608,4.374-6.74
		c1.967-3.132,3.685-6.826,5.307-10.272c0.872-1.853,2.084-4.133,2.03-6.229c-1.307-1.922-3.922,1.513-4.83,3
		c-2.483,4.061-5.373,7.927-7.564,12.156c-2.496,4.818-4.841,9.834-6.879,14.862c-0.615,1.521-1.139,3.081-1.951,4.513
		c-0.549,0.968-1.234,1.923-2.022,2.834c-2.61,3.019-6.345,5.549-9.957,6.393c-1.581,0.369-4.075-0.332-5.06,1.386
		c-0.312,0.543-0.317,1.68,0.638,1.347c1.382-0.504,4.003-1.701,6.18-0.875c2.106,1.032-0.106,2.973-1.68,5.604
		c-0.581,1.052-1.925,2.481-2.82,3.77c-2.129,3.062-4.228,6.262-6.343,9.359c-1.148,1.682-1.357,2.419-3.758,5.379
		c-2.4,2.96-7.036,7.472-12.084,8.12c-2.765,0.355,0.03-1.496-1.265-2.382c-0.385,0.373-1.154,0.489-1.109,1.117
		c-0.752,0.628-0.41,2.003,0.305,2.52c1.802,1.304,4.801-0.323,6.41-1.239c2.518-1.434,4.878-3.171,6.876-5.275
		c4.605-4.851,8.216-11.078,11.779-16.711c1.084-1.714,2.032-3.107,3.18-4.771c1.148-1.661,2.214-3.185,2.71-3.344
		c1.528-0.271,2.591,1.759,2.969,2.935c0.502,1.567,0.314,3.251,0.017,4.839c-0.472,2.526-0.756,5.086-1.249,7.607
		c-0.593,3.029-0.966,5.855-0.715,8.945c0.184,2.276-0.089,4.911,1.786,6.596c1.418,1.274,3.594,1.789,4.735-0.152
		c0.606-1.032,0.894-2.268,1.112-3.434c0.534-2.87,0.91-5.84,0.818-8.759c-0.129-4.08-0.973-8.392-2.676-12.12
		c-0.687-1.504-1.535-2.641-1.398-4.376c0.161-2.044,0.965-4.023,1.478-5.995c0.616-2.368,1.297-4.915,2.439-7.091
		c0.409-0.778,0.812-1.774,1.64-2.184c1.307-0.646,2.626-1.104,3.791-2.01c2.899-2.253,5.769-4.575,8.809-6.546
		c4.767-3.091,9.344-6.344,14.328-9.12c2.603-1.45,5.135-3.023,7.738-4.475c1.136-0.634,2.286-1.214,3.375-1.925
		c0.872-0.571,1.824-1.312,2.899-1.403c-1.889,3.439-4.417,6.456-4.55,10.565c-0.181,5.614,6.202,9.265,10.455,11.645
		c1.278,0.715,2.628,1.128,3.972,1.75c4.854,2.244,12.607,3.959,14.514,9.729c0.962,2.912-0.264,5.576-1.872,7.939
		c-0.689,1.014-1.861,2.148-2.698,3.116c-1.05,1.214-2.201,2.354-3.489,3.316c-4.014,3-8.152,5.233-12.696,7.25
		c-5.375,2.384-11.079,4.261-16.977,4.667c-1.905,0.131-8.277,1.526-9.197-1.084c-0.497-1.411,3.331-1.854,2.923-3.257
		c-0.239-0.823-1.679,0.021-2.061,0.278c-1.067,0.722-2.061,2.004-2.125,3.335c-0.057,1.166,0.926,2.133,1.957,2.402
		c2.684,0.704,6.284-0.056,8.971-0.359c4.007-0.451,7.989-1.176,11.832-2.423c4.025-1.305,8.088-3.07,11.846-5.015
		c0.821-0.424,1.443-1.101,2.232-1.596c1.327-0.83,2.547-1.705,3.735-2.726c2.61-2.241,5.549-4.657,7.39-7.604
		C111.43,262.942,109.289,256.145,102.917,253.481 M92.069,220.76c0.151-0.114,0.719-0.612,0.719-0.612s1.044-1.143,2.131-1.726
		c2.115-1.135,2.257-1.714,6.59-2.57c4.333-0.857,4.065-0.536,6.408-0.48c2.344,0.056,2.284,0.315,2.691,0.55
		c0.407,0.236-1.174,0.291-1.772,0.42c-3.296,0.712-6.494,1.485-9.69,2.579c-2.625,0.898-5.169,2.011-7.785,2.929
		c-0.331,0.115-0.685,0.137-1.008,0.282C90.85,221.619,91.494,221.192,92.069,220.76 M44.608,243.743
		c0.841-2.347,2.268-5.02,3.092-6.715c0.825-1.696,4.571-7.801,7.198-12.105c0.956-1.566,3.766-6.104,4.325-6.15
		c1.2,0.417-0.387,2.52-0.387,2.52s-0.328,0.685-1.632,3.527l-5.912,11.191c-2.761,4.528-2.761,4.528-4.827,7.386
		c-2.066,2.856-1.323,2.526-2.48,3.027C44.021,245.521,44.304,244.593,44.608,243.743 M31.132,263.018
		c-0.639-0.361-0.442-0.22-0.639-0.361c-0.197-0.141-0.539-0.463-0.329-0.502s0.509-0.156,0.509-0.156s0.476-0.272,1.041-0.623
		c1.611-1.108,2.532-1.856,3.069-2.133c0.013-0.002,0.025-0.003,0.038-0.004c-0.142,0.563-0.136,0.367-0.942,1.684
		C31.771,263.378,31.771,263.378,31.132,263.018 M38.054,274.226c1.668,4.455,2.442,9.37,2.082,14.117
		c-0.127,1.672-1.37,9.451-4.037,7.757s-2.12-4.42-2.124-6.511c-0.006-3.144-0.445-3.07,0.856-10.46
		c1.3-7.39,1.227-8.664,1.717-7.782C37.039,272.228,37.71,273.311,38.054,274.226 M36.458,265.403
		c-0.389,1.64-0.363,1.728-0.922,1.913c-0.01,0.003-1.176-1.72-2.131-2.565c-1.254-0.798-0.51-1.118,1.148-3.407
		c1.452-1.84,0.059,0.013,1.463-1.976c1.708-2.009,2.582-2.983,2.582-2.983S36.847,263.764,36.458,265.403"/>
</g>
<g id="Layer_2">
	<path fill-rule="evenodd" clip-rule="evenodd" fill="#DC0032" d="M122.876,91.01c0.968-0.153,1.782-0.741,1.371-1.761
		c-0.507-1.26-3.351-0.831-3.666,0.376C120.292,90.735,121.699,91.195,122.876,91.01 M110.75,114.7
		c0.607,1.862,1.088,2.854,3.161,2.35c1.239-0.302,2.097-1.182,2.901-2.119c0.209-0.244,2.246-2.953,2.02-2.993
		c0.131,0.024,0.237-0.02,0.318-0.124c2.08,2.748,5.29-1.113,6.634-2.932c0.714-0.966,1.145-1.711,1.6-2.823
		c0.174-0.425,0.238-1.336,0.762-1.395c0.073,0.338,0.052,0.718,0.018,1.069c0.042-0.002-0.328,1.652-0.291,1.632
		c-0.2,1.225-0.491,0.947-0.053,2.193c0.571,1.63,1.424,0.23,1.96-0.413c0.776-0.931,1.108-1.672,1.639-2.744
		c0.763-1.545,1.283-3.623,2.644-4.763c0.431-0.362,0.749-0.412,1.079,0.023c0.613,0.809,0.259,2.583,0.207,3.509
		c-0.024,0.449-0.103,0.923-0.098,1.368c0.013,1.344,0.19,2.571,0.362,3.897c0.063,0.486,0.012,1.117,0.469,1.411
		c0.465,0.298,1.245,0.034,1.51-0.42c0.349-0.596-0.159-1.485-0.275-2.098c-0.313-1.659-0.06-3.354-0.181-5.028
		c-0.097-1.336,0.001-3.389-1.055-4.382c-1.272-1.197-2.952,0.019-3.722,1.179c-0.465,0.699-0.984,1.363-1.377,2.107
		c-0.294,0.558-0.269,1.27-0.665,1.768c-0.83-0.523,0.42-2.561-0.083-3.44c-1.225-2.137-3.005,0.769-3.429,1.842
		c-0.628,1.593-1.241,3.204-2.258,4.597c-0.673,0.921-1.68,2.226-2.768,2.654c-1.988,0.782-1.39-2.391-1.303-3.32
		c0.112-1.208,0.174-2.46,0.188-3.675c0.009-0.725-0.166-1.456-0.912-0.69c-1.176,1.206-0.853,3.501-1.159,5.057
		c-0.264,1.338-0.834,2.537-1.462,3.737c-0.487,0.933-3.079,4.756-4.406,3.296c-0.792-0.872-0.692-2.663-0.679-3.753
		c0.013-1.045,0.046-2.125,0.213-3.16c0.331-2.063,0.316-4.111,0.46-6.189c0.044-0.638,0.22-1.777,0.465-2.349
		c0.085-0.194,1.376-1.265,1.373-1.27c0.034,0.076,0.744-0.526,1.018-0.709c0.125-0.054,3.892-1.827,4.433-1.918
		c0.564-0.095,2.207,0.116,1.745-0.987c-0.246-0.587-0.852-0.584-1.392-0.518c-1.542,0.19-3.088,1.139-4.487,1.766
		c-0.841,0.378-1.977,1.31-2.768,1.791c0.149-0.091,0.776-2.953,0.819-3.242c0.099-0.651,0.147-1.701-0.778-1.664
		c-0.553,0.022-0.91,0.722-1.05,1.167c-0.438,1.392-0.047,2.897-0.476,4.289c-0.546,1.772-4.083,2.727-5.608,3.222
		c-1.102,0.357-2.638,1.212-2,2.634c1.227,2.73,4.422-2.383,6.02-2.077c1.955,0.374,0.817,4.136,0.588,5.495
		c-0.344,2.039-0.765,4.1-1.535,6.025c-0.417,1.043-0.644,2.204-1.144,3.206c-0.153,0.304-0.813,1.002-0.736,1.36
		c-0.428-1.983-0.842-3.815-1.66-5.699c-0.584-1.34-2.543-3.406-3.611-1.514c-0.706,1.253-0.819,2.739-1.295,4.073
		c-0.56,1.569-1.032,3.155-1.475,4.757c0,0-0.186,0.423-1.1,2.346c0.448-1.203-0.976,2.122-3.054,1.418
		c-1.462-0.495-1.556-0.793-1.491-2.331c0.082-1.954,1.33-4.305,0.029-6.114c-0.507-0.706-1.414-0.645-2.052-0.18
		c-0.813,0.593-0.905,1.541-0.906,2.478c-0.002,2.575,0.871,4.974-0.315,7.396c-0.815,1.668-2.412,3.83-4.559,2.873
		c-1.956-0.873-1.737-3.541-1.516-5.286c0.118-0.935,0.245-1.882,0.419-2.808c0.371-1.966,1.004-3.587-0.462-3.361
		c-0.882,0.136-1.265,1.88-1.409,2.545c-0.312,1.445-0.315,2.958-0.214,4.427c0.149,2.174,0.453,4.937,2.385,6.306
		c1.841,1.306,3.475,0.146,4.762-1.282c0.303-0.336,3.014-3.652,2.635-3.917c0.959,0.672,1.549,1.526,2.943,1.536
		c5.299,0.039,6.61-6.202,7.249-10.333c0.083-0.534,0.2-2.817,0.979-2.87c0.358-0.024,1.211,1.193,1.376,1.464
		c0.427,0.702,0.628,1.531,0.775,2.331c0.204,1.102,0.615,3.279-0.526,4.032c-0.324,0.214-0.585,0.115-0.937,0.104
		c-0.564-0.018-1.449,0.239-1.86,0.646c-0.504,0.501-0.319,1.48,0.173,1.915c1.141,1.011,2.266-0.216,3.262-0.632
		c1.834-0.769,3.008-2.743,3.65-4.532c0.215-0.598,0.569-1.266,0.703-1.853C110.213,115.611,110.379,115.017,110.75,114.7
		 M248.979,39.574c0.019,0,0.043-0.004,0.083-0.014c0.009-0.005,0.023-0.005,0.033-0.01c-0.024,0.005-0.055,0.01-0.083,0.015
		C248.998,39.57,248.988,39.57,248.979,39.574 M237.872,55.538c-0.032,0.045-0.06,0.084-0.08,0.116
		c-0.003,0.033-0.005,0.069-0.008,0.111c0.079-0.063,0.198-0.172,0.236-0.18C238,55.589,237.926,55.559,237.872,55.538
		 M235.459,40.956c0.034-0.069,0.067-0.133,0.102-0.194c0.004-0.01,0.009-0.02,0.014-0.031
		C235.459,40.736,235.48,40.865,235.459,40.956 M335.31,3.651c-1.415-1.778-3.037-2.903-5.183-3.36
		c-2.307-0.492-4.126-0.284-6.447,0.069c-2.717,0.413-5.354,1.16-7.952,2.05c-1.951,0.668-3.87,1.422-5.763,2.239
		c-6.077,2.624-12.062,5.465-17.908,8.581c-4.399,2.345-12.992,7.925-12.992,7.925s-2.681,1.46-3.953,2.399
		c-1.111,0.819-2.298,1.521-3.396,2.361c-0.635,0.487-2.316,2.108-2.613,0.471c-0.12-0.661-0.073-1.52,0.086-2.175
		c0.252-1.035,0.432-1.76,0.609-2.872c0.21-1.297,0.236-2.617,0.302-3.926c0.031-0.66-0.061-1.662-0.219-2.31
		c-0.366-1.491-1.489-1.932-2.056-0.125c-0.419,1.33-0.275,2.825-0.278,4.2c-0.006,1.637-0.132,3.267-0.341,4.891
		c-0.111,0.859-0.244,1.714-0.389,2.567c-0.057,0.322-0.13,1.731-0.404,1.926c-0.129,1.228-0.129,1.228-3.295,2.836
		c-1.611,0.817-3.247,1.591-4.911,2.291c-1.317,0.555-3.781,2.28-5.112,1.154c-0.918-0.78-0.753-2.663-0.71-3.72
		c0.11-2.743,0.784-5.412,1.433-8.064c0.818-3.343,0.382-5.478-0.703-4.894c-1.478,1.276-2.341,5.878-2.529,11.915
		c-0.187,6.036,1.062,5.266-2.15,6.938c-2.033,1.059-4.493,1.268-6.713,1.724c-5.04,1.036-5.508,0.821-6.16,2.02
		c-0.176,0.388-0.31,0.769-0.104,1.033c0-0.064,0.094-0.133,0.118,0c1.544,5.296,7.443,7.699,10.883,11.533
		c1.163,1.296,1.457,2.637,1.068,4.349c-0.527,2.319-2.717,7.348-5.652,7.342c-3.753-0.009-2.402-4.538-1.735-6.587
		c0.648-1.983,1.272-4.145-0.623-5.659c-2.908-2.326-3.077,3.32-3.074,5.017c0.004,3.334-1.334,11.949-6.505,11.141
		c-3.991-0.624-1.134-4.939-0.452-6.874c1.34-3.815,2.109-7.812,2.358-11.845c0.138-2.209,0.026-5.521-2.631-6.171
		c-1.259-0.308-1.935,0.574-2.44,1.578c-2.05,4.075-2.366,8.623-2.297,13.116c0.034,2.138,0.25,4.289,0.173,6.428
		c-0.076,2.074-1.17,3.734-2.361,5.485c-0.678,0.998-4.745,4.821-5.988,3.052c-0.312-0.446,0.197-2.06,0.198-2.606
		c0.004-1.159-0.075-3.518-1.324-3.998c-1.101-0.424-2.951,0.827-3.702,1.515c-0.838,0.768-0.945,3.152-1.185,4.186
		c-0.973,1.652-0.745,5.65-3.324,4.132c-2.63-1.546-0.271-5.032-2.575-6.404c-1.379-0.821-3.892-0.079-5.088,0.768
		c-1.418,1.006-2.317,2.581-3.34,3.952c-0.748,1.004-1.533,2.011-2.198,3.075c-1.672,2.677-5.016,6.508-7.699,8.2
		c-1.798,1.131-4.159,2.161-6.057,0.597c-1.85-1.527-2.247-4.876-0.716-7.199c2.964-4.498,6.438,2.498,6.262-0.411
		c-0.118-1.938-3.272-4.6-5.074-4.773c0.481,1.181-0.419,1.578-1.289,2.081c-1.075,0.619-1.67,1.536-2.087,2.706
		c-0.346,0.964-0.655,2.296-0.669,3.313c-0.031,2.502,1.084,6.341,3.506,7.472c1.973,0.923,4.091,0.439,5.904-0.641
		c1.335-0.796,2.455-2.325,3.513-3.436c1.02-1.071,1.857-2.299,2.875-3.37c0.922-0.973,1.666-2.146,2.646-3.058
		c0.427-0.397,1.931-2.589,2.057-2.025s0.657,5.324,3.471,5.294c1.677-0.019,2.679-1.637,3.241-3.02
		c0.337-0.827,0.621-1.354,0.838-2.766c1.56,0.624,3.04,3.252,5.391,1.57c1.508-1.078,1.723-4.012,1.927-5.72l0.266-1.626
		c0.198-0.859,1.51-2.876,2.241-1.561c-0.142,1.605-0.585,3.7-0.399,5.088c0.531,3.953,5.791,0.903,8.415-1.682
		c2.498-3.687,1.773-3.776,3.485-4.385c1.187-0.423,2.799,1.276,3.973,1.529c2.309,0.497,3.84-0.829,5.326-2.363
		c0.377-0.388,3.112-2.813,2.823-3.418c1.172,2.36,4.148,2.907,6.424,1.982c2.549-1.037,3.632-3.755,4.371-6.215
		c0.108-0.361,1.538-5.011,1.918-4.746c2.778,1.971,5.127,4.491,7.896,6.487c1.905,1.373,4.915,3.818,7.456,3.311
		c3.062-0.613,1.918-2.474,1.145-6.765c-0.39-2.554-0.489-5.397-0.489-5.397l1.059-15.123c0,0,0.711-6.129,1.177-6.38
		c0.045-0.024,0.469-1.501,0.719-1.76c0.503-0.523,1.165-0.865,1.753-1.275c1.732-1.206,3.473-2.447,5.199-3.673
		c5.638-4,10.897-7.117,16.943-10.432c1.808-0.99,3.726-1.751,5.596-2.611c3.425-1.574,6.646-3.549,10.036-5.191
		c3.497-1.694,7.154-2.675,10.878-3.717c2.137-0.599,4.396-0.871,6.575-0.754c2.022,0.108,4.342,0.304,5.967,1.653
		c0.783,0.65,2.302,2.269,0.812,2.893c-0.715,0.299-3.662-0.204-3.236,1.156c0.625,1.999,3.745,1.099,5.026,0.643
		C337.637,7.918,336.493,5.139,335.31,3.651 M201.088,80.428c-0.434,0.698-1.811-0.28-2.025-0.698
		c-0.353-0.684-0.359-1.698-0.317-2.45c0.005-0.09,0.012-0.183,0.021-0.276c0.143-1.497,0.772-3.235,2.065-4.073
		c0.203-0.132,2.439-0.626,2.374-0.3C202.667,75.397,202.353,78.39,201.088,80.428 M226.276,62.588
		c-0.458,0.033-0.246-2.609,0.025-4.945c0.197-1.688,0.429-3.217,0.461-3.464c0.314-2.27,0.566-5.307,2-7.182
		c0.248-0.324,0.925,1.666,0.94,1.77c0.13,0.832,0.006,1.754-0.081,2.585c-0.254,2.412-0.623,4.84-1.356,7.156
		C228.053,59.177,227.114,62.529,226.276,62.588 M238.044,59.871c-0.216,0.041-0.303-3.165-0.261-4.106
		c-0.081,0.065-0.118,0.079,0.008-0.111c0.003-0.062,0.009-0.113,0.016-0.134c0.004-0.005,0.031,0.005,0.064,0.018
		c0.08-0.113,0.19-0.265,0.348-0.475C239.595,51.778,240.385,57.646,238.044,59.871 M249.882,47.265
		c-0.04,1.425-0.28,4.752-2.52,4.127c-2.024-0.564-3.11-1.513-4.883-3.444c-1.771-1.932-2.324-2.566-3.279-3.62
		c-0.654-0.721-0.924-1.252-0.851-1.662c0.408-2.26,5.546-2.1,7.218-2.567c0.979-0.274,0.979-0.274,3.073-0.703
		C250.736,38.967,250.385,40.209,249.882,47.265 M264.972,62.583c-0.509,0.226-3.691-1.042-3.571-1.289
		c0.521-1.079,1.29-2.006,1.847-3.141c0.143-0.291,0.245-0.617,0.34-0.95c0.225-0.78,0.416-1.6,1.022-2.11
		c-0.356,0.3,0.243,2.346,0.588,4.835C265.542,62.417,266.21,62.032,264.972,62.583 M265.647,38.826c0,0-0.498,9.597-2.078,14.221
		c-0.779,2.281-1.488,5.906-4.437,6.186c-2.586,0.245-4.986-2.421-6.185-4.373c-1.294-2.112-1.237-4.682-1.197-7.096
		c-0.098-9.442,0.654-9.054,3.126-10.931c1.837-0.752,6.239-2.836,6.239-2.836l4.14-1.91c0.41,0.016,0.078-0.202,0.804-0.217
		C265.956,35.533,265.647,38.826,265.647,38.826 M129.407,164.43c-0.079,0.044-0.157,0.084-0.236,0.118
		C129.259,164.524,129.401,164.543,129.407,164.43 M187.995,103.91c-3.692-1.55-7.25-3.407-10.943-4.947
		c-9.044-3.772-20.328-7.99-26.562-15.997c-4.622-5.936-3.108-12.535,0.217-18.581c1.499-2.726,3.482-5.139,5.161-7.748
		c0.049,0.084-0.076,0.179-0.027,0.287c1.301-2.011,3.052-3.804,5.01-5.166c1.452-1.01,3.007-1.864,4.611-2.604
		c2.798-1.29,5.739-2.229,8.674-3.146c3.026-0.944,5.993-2.059,9.012-3.022c4.184-1.336,8.621-2.344,12.921-3.233
		c4.848-1.002,10.184-1.61,14.995-0.101c0.973,0.305,2.026,0.98,3.076,0.823c1.7-0.255,1.307-1.973,0.314-2.742
		c-0.904-0.701-2.123-0.94-3.194-1.259c-3.017-0.898-5.791-2.344-8.897-2.972c-3.187-0.643-6.468-0.74-9.708-0.647
		c-6.918,0.199-14.537,1.369-20.437,5.233c-2.432,1.593-4.665,3.487-6.887,5.361c-4.006,3.377-8.517,7.379-13.325,9.569
		c-9.066,4.131-14.997,7.774-19.364,10.321c-11.23,6.549-20.92,13.028-31.697,20.27c-4.015,2.698-7.627,5.934-11.376,8.981
		c-1.799,1.463-2.688,2.174-5.633,4.23c-2.945,2.056-2.146,1.461-5.116,2.563c0.487-3.018,3.625-5.549,5.321-7.956
		c2.322-3.294,4.263-6.839,6.613-10.114c2.881-4.015,4.359-6.563,7.92-12.262c3.562-5.698,6.673-12.418,9.609-18.687
		c1.579-3.371,3.775-7.52,3.676-11.334c-2.367-3.498-7.101,2.753-8.747,5.458c-4.494,7.388-9.727,14.42-13.695,22.115
		c-4.52,8.766-8.768,17.891-12.457,27.04c-1.115,2.765-2.062,5.604-3.533,8.209c-0.994,1.76-2.235,3.498-3.661,5.155
		c-4.727,5.493-11.491,10.095-18.031,11.63c-2.863,0.672-7.378-0.603-9.163,2.522c-0.564,0.987-0.573,3.055,1.157,2.449
		c2.502-0.918,7.247-3.095,11.189-1.592c3.815,1.88-0.191,5.408-3.041,10.195c-1.052,1.915-3.485,4.514-5.107,6.856
		c-3.855,5.571-7.656,11.394-11.486,17.029c-2.079,3.058-2.458,4.402-6.804,9.787c-4.347,5.384-12.743,13.592-21.883,14.773
		c-5.007,0.646,0.054-2.724-2.29-4.335c-0.698,0.679-2.089,0.89-2.009,2.032c-1.362,1.144-0.742,3.645,0.553,4.586
		c3.263,2.371,8.692-0.59,11.606-2.257c4.56-2.606,8.834-5.769,12.452-9.597c8.339-8.825,14.877-20.152,21.329-30.402
		c1.963-3.118,3.68-5.652,5.759-8.676c2.079-3.024,4.01-5.795,4.908-6.085c2.767-0.493,4.692,3.199,5.375,5.337
		c0.91,2.853,0.569,5.914,0.031,8.804c-0.855,4.597-1.368,9.253-2.262,13.841c-1.073,5.511-1.748,10.653-1.295,16.275
		c0.334,4.139-0.161,8.933,3.236,11.999c2.566,2.317,6.506,3.255,8.572-0.279c1.098-1.878,1.621-4.123,2.014-6.244
		c0.968-5.223,1.649-10.625,1.482-15.936c-0.233-7.422-1.762-15.267-4.846-22.051c-1.244-2.735-2.78-4.804-2.532-7.959
		c0.293-3.721,1.748-7.322,2.677-10.907c1.116-4.309,2.348-8.943,4.417-12.901c0.74-1.415,1.471-3.229,2.969-3.973
		c2.368-1.175,4.756-2.008,6.866-3.655c5.249-4.099,10.447-8.326,15.95-11.91c8.632-5.622,16.921-11.54,25.946-16.592
		c4.714-2.639,9.299-5.501,14.012-8.142c2.057-1.151,4.14-2.206,6.111-3.501c1.579-1.039,3.304-2.387,5.251-2.553
		c-3.421,6.258-8,11.746-8.24,19.222c-0.327,10.213,11.231,16.855,18.931,21.185c2.315,1.301,4.76,2.053,7.193,3.183
		c8.791,4.083,22.829,7.203,26.282,17.701c1.742,5.297-0.479,10.143-3.39,14.445c-1.248,1.842-3.371,3.907-4.885,5.668
		c-1.901,2.21-3.986,4.283-6.319,6.034c-7.269,5.457-14.762,9.522-22.991,13.189c-9.731,4.337-20.061,7.753-30.742,8.491
		c-3.448,0.237-14.986,2.777-16.653-1.973c-0.9-2.566,6.032-3.372,5.293-5.925c-0.433-1.497-3.04,0.038-3.732,0.507
		c-1.933,1.312-3.732,3.647-3.848,6.067c-0.103,2.123,1.678,3.881,3.544,4.372c4.861,1.279,11.38-0.103,16.245-0.654
		c7.256-0.821,14.467-2.139,21.425-4.407c7.288-2.376,14.646-5.587,21.45-9.124c1.487-0.773,2.613-2.002,4.043-2.903
		c2.402-1.512,4.611-3.104,6.762-4.959c4.728-4.076,10.05-8.472,13.385-13.835C203.408,121.124,199.533,108.755,187.995,103.91
		 M168.349,44.38c0.273-0.207,1.303-1.114,1.303-1.114s1.891-2.077,3.858-3.139c3.829-2.064,4.087-3.117,11.935-4.676
		c7.846-1.559,7.36-0.974,11.603-0.874c4.244,0.101,4.135,0.573,4.873,1.002c0.737,0.429-2.126,0.529-3.209,0.763
		c-5.968,1.293-11.759,2.703-17.547,4.692c-4.754,1.633-9.36,3.657-14.097,5.326c-0.6,0.212-1.24,0.251-1.826,0.515
		C166.141,45.945,167.309,45.168,168.349,44.38 M82.407,86.194c1.523-4.269,4.106-9.133,5.599-12.217
		c1.493-3.084,8.277-14.191,13.034-22.022c1.732-2.849,6.82-11.105,7.831-11.19c2.174,0.758-0.699,4.585-0.699,4.585
		s-0.595,1.245-2.955,6.416l-10.706,20.36c-4.999,8.239-4.999,8.239-8.741,13.437c-3.741,5.197-2.397,4.597-4.491,5.508
		C81.346,89.427,81.855,87.739,82.407,86.194 M58.005,121.26c-1.158-0.657-0.801-0.4-1.158-0.657s-0.977-0.843-0.597-0.914
		c0.381-0.071,0.922-0.284,0.922-0.284s0.862-0.496,1.885-1.133c2.918-2.019,4.585-3.379,5.558-3.881
		c0.023-0.003,0.046-0.005,0.068-0.007c-0.257,1.025-0.246,0.667-1.706,3.064C59.163,121.916,59.163,121.916,58.005,121.26
		 M70.538,141.65c3.022,8.104,4.422,17.046,3.77,25.681c-0.23,3.043-2.479,17.197-7.309,14.114
		c-4.83-3.082-3.838-8.041-3.846-11.844c-0.01-5.719-0.806-5.586,1.549-19.03c2.355-13.445,2.223-15.763,3.111-14.159
		C68.701,138.014,69.917,139.985,70.538,141.65 M67.648,125.6c-0.705,2.983-0.657,3.143-1.67,3.48
		c-0.018,0.006-2.128-3.129-3.859-4.666c-2.269-1.452-0.922-2.034,2.08-6.2c2.629-3.345,0.106,0.022,2.649-3.594
		c3.093-3.654,4.675-5.428,4.675-5.428S68.354,122.616,67.648,125.6"/>
</g>
</svg>
