<?xml version="1.0" encoding="utf-8"?>
<!-- Generator: Adobe Illustrator 15.1.0, SVG Export Plug-In . SVG Version: 6.00 Build 0)  -->
<!DOCTYPE svg PUBLIC "-//W3C//DTD SVG 1.1//EN" "http://www.w3.org/Graphics/SVG/1.1/DTD/svg11.dtd">
<svg version="1.1" id="Layer_1" xmlns="http://www.w3.org/2000/svg" xmlns:xlink="http://www.w3.org/1999/xlink" x="0px" y="0px"
	 width="264px" height="271.624px" viewBox="0 0 264 271.624" enable-background="new 0 0 264 271.624" xml:space="preserve">
<g id="Layer_1_1_">
	<path fill="#A98B11" d="M79.623,210.681c0.636-0.101,1.17-0.483,0.9-1.151c-0.333-0.824-2.201-0.543-2.407,0.246
		C77.925,210.502,78.849,210.802,79.623,210.681 M71.659,226.167c0.399,1.218,0.716,1.867,2.077,1.535
		c0.813-0.195,1.376-0.771,1.905-1.385c0.138-0.158,1.475-1.931,1.327-1.955c0.086,0.015,0.154-0.015,0.208-0.082
		c1.366,1.797,3.475-0.728,4.356-1.918c0.469-0.629,0.753-1.117,1.052-1.845c0.112-0.276,0.155-0.872,0.499-0.911
		c0.049,0.221,0.035,0.469,0.012,0.699c0.029-0.001-0.215,1.08-0.191,1.064c-0.131,0.803-0.321,0.619-0.035,1.435
		c0.375,1.065,0.935,0.149,1.287-0.271c0.51-0.607,0.729-1.092,1.078-1.793c0.5-1.01,0.843-2.367,1.736-3.112
		c0.283-0.237,0.492-0.271,0.708,0.015c0.403,0.528,0.17,1.688,0.136,2.295c-0.016,0.291-0.068,0.602-0.064,0.893
		c0.009,0.879,0.125,1.681,0.238,2.548c0.042,0.317,0.008,0.731,0.308,0.924c0.306,0.192,0.817,0.021,0.992-0.274
		c0.229-0.392-0.104-0.972-0.181-1.373c-0.206-1.084-0.039-2.191-0.119-3.285c-0.064-0.873,0-2.217-0.692-2.863
		c-0.836-0.783-1.939,0.011-2.445,0.77c-0.306,0.457-0.646,0.893-0.905,1.379c-0.193,0.364-0.176,0.83-0.436,1.154
		c-0.544-0.342,0.276-1.674-0.055-2.249c-0.804-1.396-1.973,0.503-2.251,1.204c-0.413,1.042-0.814,2.096-1.482,3.005
		c-0.443,0.603-1.104,1.456-1.819,1.735c-1.304,0.512-0.912-1.562-0.854-2.17c0.074-0.789,0.114-1.608,0.124-2.402
		c0.004-0.475-0.11-0.951-0.599-0.451c-0.772,0.789-0.561,2.288-0.761,3.307c-0.174,0.873-0.548,1.658-0.96,2.441
		c-0.321,0.609-2.023,3.108-2.895,2.155c-0.52-0.569-0.454-1.742-0.445-2.454c0.009-0.684,0.03-1.389,0.139-2.066
		c0.218-1.348,0.207-2.686,0.302-4.045c0.028-0.416,0.144-1.162,0.305-1.535c0.057-0.127,0.904-0.826,0.902-0.83
		c0.022,0.051,0.489-0.344,0.668-0.463c0.082-0.035,2.555-1.194,2.911-1.254c0.371-0.062,1.45,0.076,1.147-0.646
		c-0.162-0.384-0.559-0.382-0.915-0.339c-1.012,0.123-2.028,0.744-2.947,1.154c-0.552,0.246-1.298,0.855-1.817,1.17
		c0.097-0.06,0.509-1.931,0.538-2.117c0.064-0.428,0.096-1.113-0.512-1.088c-0.362,0.014-0.597,0.471-0.688,0.763
		c-0.289,0.909-0.033,1.894-0.314,2.803c-0.358,1.158-2.682,1.783-3.683,2.104c-0.724,0.234-1.733,0.793-1.314,1.724
		c0.807,1.785,2.904-1.56,3.954-1.358c1.284,0.246,0.537,2.705,0.387,3.594c-0.228,1.332-0.503,2.681-1.009,3.938
		c-0.273,0.682-0.423,1.439-0.752,2.096c-0.101,0.199-0.533,0.655-0.482,0.891c-0.281-1.296-0.554-2.496-1.09-3.727
		c-0.383-0.877-1.67-2.227-2.372-0.988c-0.463,0.816-0.539,1.789-0.85,2.66c-0.369,1.026-0.677,2.062-0.969,3.109
		c0,0-0.123,0.277-0.723,1.534c0.295-0.787-0.641,1.388-2.005,0.927c-0.961-0.324-1.022-0.52-0.979-1.523
		c0.053-1.276,0.873-2.813,0.019-3.998c-0.334-0.461-0.929-0.42-1.348-0.116c-0.534,0.39-0.594,1.007-0.595,1.621
		c-0.002,1.684,0.572,3.25-0.208,4.834c-0.535,1.089-1.584,2.504-2.994,1.878c-1.285-0.57-1.141-2.314-0.995-3.456
		c0.077-0.61,0.161-1.229,0.275-1.835c0.244-1.286,0.659-2.344-0.303-2.196c-0.58,0.089-0.832,1.229-0.925,1.662
		c-0.206,0.946-0.208,1.937-0.142,2.896c0.098,1.422,0.297,3.227,1.566,4.121c1.209,0.854,2.282,0.096,3.127-0.838
		c0.199-0.219,1.98-2.388,1.73-2.561c0.631,0.439,1.018,0.998,1.933,1.005c3.481,0.024,4.342-4.056,4.76-6.756
		c0.055-0.351,0.132-1.841,0.643-1.875c0.236-0.017,0.796,0.778,0.904,0.957c0.28,0.459,0.413,1.001,0.509,1.522
		c0.135,0.721,0.405,2.145-0.345,2.635c-0.212,0.142-0.385,0.074-0.615,0.068c-0.37-0.011-0.952,0.156-1.222,0.424
		c-0.331,0.326-0.209,0.967,0.113,1.25c0.749,0.662,1.489-0.141,2.143-0.412c1.205-0.502,1.975-1.793,2.396-2.963
		c0.142-0.391,0.375-0.828,0.463-1.211C71.307,226.76,71.416,226.374,71.659,226.167 M162.437,177.06
		c0.014,0,0.027-0.004,0.055-0.011c0.006-0.002,0.016-0.002,0.022-0.006c-0.017,0.004-0.036,0.006-0.056,0.01
		C162.449,177.056,162.443,177.056,162.437,177.06 M155.143,187.495c-0.021,0.029-0.04,0.056-0.054,0.076
		c-0.002,0.021-0.002,0.045-0.004,0.072c0.052-0.042,0.129-0.113,0.154-0.117C155.227,187.528,155.178,187.509,155.143,187.495
		 M153.559,177.963c0.021-0.047,0.043-0.086,0.066-0.127c0.002-0.006,0.005-0.014,0.009-0.021
		C153.559,177.819,153.572,177.903,153.559,177.963 M219.133,153.578c-0.93-1.162-1.994-1.897-3.402-2.197
		c-1.518-0.321-2.709-0.186-4.232,0.046c-1.785,0.271-3.518,0.758-5.225,1.34c-1.281,0.438-2.541,0.931-3.783,1.464
		c-3.992,1.715-7.922,3.571-11.76,5.609c-2.891,1.533-8.535,5.181-8.535,5.181s-1.76,0.954-2.596,1.569
		c-0.729,0.534-1.51,0.993-2.229,1.542c-0.418,0.318-1.521,1.379-1.719,0.309c-0.078-0.433-0.047-0.994,0.059-1.422
		c0.164-0.676,0.281-1.15,0.4-1.877c0.137-0.85,0.154-1.711,0.197-2.567c0.02-0.433-0.039-1.086-0.145-1.51
		c-0.24-0.975-0.979-1.264-1.352-0.082c-0.273,0.869-0.18,1.848-0.184,2.747c-0.002,1.069-0.086,2.135-0.223,3.197
		c-0.072,0.561-0.16,1.119-0.256,1.678c-0.037,0.211-0.084,1.131-0.266,1.258c-0.084,0.803-0.084,0.803-2.162,1.854
		c-1.061,0.534-2.133,1.039-3.227,1.498c-0.866,0.362-2.483,1.491-3.357,0.755c-0.604-0.511-0.495-1.74-0.468-2.432
		c0.072-1.795,0.515-3.539,0.939-5.272c0.538-2.185,0.252-3.581-0.461-3.198c-0.971,0.836-1.537,3.844-1.66,7.789
		c-0.123,3.946,0.697,3.44-1.412,4.533c-1.336,0.691-2.953,0.829-4.408,1.128c-3.312,0.677-3.617,0.536-4.046,1.32
		c-0.115,0.255-0.203,0.503-0.069,0.675c0-0.041,0.062-0.086,0.078,0c1.014,3.462,4.889,5.033,7.146,7.539
		c0.765,0.848,0.958,1.725,0.702,2.844c-0.348,1.516-1.783,4.803-3.711,4.799c-2.465-0.006-1.577-2.967-1.139-4.306
		c0.424-1.296,0.834-2.71-0.411-3.7c-1.91-1.519-2.021,2.172-2.019,3.279c0.002,2.18-0.876,7.812-4.272,7.283
		c-2.621-0.408-0.743-3.229-0.297-4.492c0.882-2.496,1.387-5.107,1.55-7.745c0.09-1.442,0.017-3.606-1.728-4.032
		c-0.826-0.201-1.27,0.375-1.603,1.031c-1.345,2.664-1.553,5.639-1.507,8.573c0.021,1.397,0.163,2.804,0.112,4.202
		c-0.05,1.355-0.768,2.439-1.549,3.586c-0.446,0.65-3.117,3.15-3.933,1.994c-0.206-0.293,0.128-1.348,0.13-1.703
		c0.002-0.758-0.049-2.299-0.87-2.614c-0.723-0.276-1.938,0.541-2.432,0.991c-0.55,0.501-0.621,2.061-0.778,2.734
		c-0.638,1.08-0.489,3.693-2.182,2.701c-1.728-1.01-0.179-3.287-1.692-4.187c-0.905-0.535-2.555-0.052-3.34,0.503
		c-0.933,0.656-1.523,1.688-2.194,2.584c-0.491,0.654-1.006,1.312-1.443,2.008c-1.099,1.752-3.295,4.256-5.058,5.361
		c-1.179,0.738-2.731,1.412-3.977,0.39c-1.215-0.997-1.476-3.187-0.471-4.705c1.946-2.94,4.229,1.634,4.113-0.269
		c-0.078-1.268-2.15-3.008-3.333-3.119c0.316,0.771-0.274,1.031-0.847,1.357c-0.707,0.406-1.096,1.006-1.37,1.771
		c-0.228,0.63-0.431,1.501-0.44,2.166c-0.021,1.636,0.712,4.146,2.302,4.884c1.296,0.604,2.688,0.287,3.878-0.419
		c0.877-0.521,1.613-1.521,2.307-2.245c0.669-0.699,1.219-1.504,1.888-2.203c0.606-0.637,1.094-1.402,1.738-1.998
		c0.281-0.261,1.269-1.691,1.351-1.324c0.084,0.369,0.432,3.479,2.279,3.461c1.102-0.014,1.76-1.07,2.128-1.975
		c0.221-0.541,0.41-0.885,0.551-1.808c1.025,0.407,1.997,2.125,3.54,1.024c0.991-0.705,1.132-2.623,1.265-3.738l0.174-1.062
		c0.131-0.562,0.992-1.881,1.474-1.02c-0.094,1.048-0.385,2.418-0.263,3.324c0.349,2.584,3.804,0.592,5.526-1.099
		c1.64-2.411,1.166-2.469,2.29-2.866c0.779-0.276,1.837,0.834,2.608,1c1.516,0.324,2.522-0.543,3.498-1.545
		c0.248-0.254,2.044-1.841,1.853-2.234c0.771,1.541,2.726,1.898,4.22,1.295c1.673-0.68,2.386-2.454,2.871-4.062
		c0.069-0.234,1.01-3.273,1.26-3.103c1.824,1.289,3.366,2.937,5.185,4.241c1.252,0.896,3.23,2.494,4.898,2.164
		c2.01-0.4,1.258-1.617,0.75-4.422c-0.256-1.67-0.322-3.529-0.322-3.529l0.695-9.883c0,0,0.469-4.008,0.773-4.172
		c0.029-0.016,0.309-0.981,0.473-1.15c0.33-0.342,0.764-0.564,1.15-0.834c1.139-0.786,2.281-1.6,3.416-2.4
		c3.701-2.613,7.154-4.653,11.125-6.819c1.189-0.646,2.447-1.145,3.676-1.707c2.248-1.028,4.363-2.319,6.592-3.394
		c2.297-1.106,4.697-1.748,7.145-2.431c1.4-0.391,2.885-0.567,4.316-0.492c1.328,0.072,2.854,0.197,3.918,1.081
		c0.514,0.425,1.514,1.483,0.535,1.892c-0.471,0.194-2.404-0.133-2.127,0.756c0.41,1.307,2.461,0.719,3.303,0.42
		C220.662,156.367,219.908,154.55,219.133,153.578 M130.987,203.764c-0.286,0.455-1.189-0.184-1.331-0.456
		c-0.231-0.446-0.236-1.11-0.208-1.603c0.004-0.061,0.008-0.119,0.013-0.182c0.094-0.978,0.506-2.113,1.357-2.662
		c0.133-0.086,1.6-0.408,1.559-0.195C132.023,200.475,131.816,202.431,130.987,203.764 M147.527,192.102
		c-0.301,0.021-0.161-1.705,0.018-3.232c0.128-1.104,0.28-2.103,0.302-2.264c0.206-1.484,0.373-3.469,1.314-4.695
		c0.162-0.211,0.606,1.09,0.616,1.158c0.085,0.543,0.005,1.146-0.052,1.688c-0.167,1.577-0.409,3.164-0.891,4.679
		C148.695,189.874,148.078,192.065,147.527,192.102 M155.255,190.327c-0.143,0.025-0.198-2.068-0.172-2.684
		c-0.053,0.043-0.078,0.051,0.006-0.072c0-0.041,0.006-0.074,0.01-0.088c0.002-0.004,0.021,0.004,0.043,0.012
		c0.052-0.073,0.124-0.174,0.229-0.312C156.274,185.036,156.792,188.874,155.255,190.327 M163.031,182.088
		c-0.025,0.93-0.185,3.105-1.656,2.695c-1.33-0.367-2.041-0.988-3.205-2.25c-1.166-1.264-1.527-1.678-2.154-2.365
		c-0.432-0.473-0.607-0.82-0.559-1.088c0.269-1.478,3.643-1.373,4.739-1.678c0.644-0.181,0.644-0.181,2.019-0.459
		C163.591,176.663,163.36,177.475,163.031,182.088 M172.941,192.1c-0.336,0.146-2.426-0.682-2.348-0.843
		c0.344-0.706,0.848-1.312,1.213-2.056c0.096-0.189,0.162-0.402,0.225-0.619c0.146-0.51,0.273-1.045,0.67-1.381
		c-0.232,0.197,0.162,1.535,0.387,3.162C173.314,191.991,173.754,191.739,172.941,192.1 M173.383,176.571
		c0,0-0.326,6.272-1.363,9.295c-0.514,1.49-0.979,3.86-2.912,4.043c-1.699,0.162-3.276-1.58-4.063-2.855
		c-0.851-1.381-0.813-3.062-0.787-4.641c-0.064-6.172,0.43-5.918,2.054-7.145c1.206-0.492,4.097-1.854,4.097-1.854l2.719-1.25
		c0.271,0.012,0.053-0.131,0.529-0.143C173.586,174.418,173.383,176.571,173.383,176.571 M83.911,258.674
		c-0.051,0.027-0.104,0.055-0.154,0.078C83.814,258.733,83.908,258.747,83.911,258.674 M122.387,219.114
		c-2.424-1.015-4.762-2.228-7.188-3.233c-5.938-2.466-13.348-5.224-17.443-10.457c-3.036-3.88-2.041-8.194,0.143-12.146
		c0.985-1.783,2.285-3.357,3.389-5.064c0.032,0.054-0.05,0.117-0.018,0.188c0.854-1.313,2.004-2.486,3.291-3.377
		c0.954-0.658,1.975-1.218,3.028-1.701c1.837-0.844,3.77-1.457,5.696-2.057c1.987-0.617,3.936-1.346,5.917-1.977
		c2.749-0.871,5.662-1.532,8.486-2.112c3.184-0.655,6.688-1.054,9.848-0.065c0.639,0.198,1.331,0.641,2.02,0.537
		c1.117-0.166,0.858-1.289,0.207-1.791c-0.594-0.459-1.394-0.615-2.097-0.824c-1.982-0.586-3.803-1.531-5.844-1.941
		c-2.092-0.42-4.248-0.484-6.376-0.424c-4.542,0.131-9.545,0.896-13.42,3.421c-1.597,1.042-3.063,2.28-4.522,3.504
		c-2.631,2.209-5.594,4.824-8.751,6.255c-5.954,2.7-9.849,5.082-12.716,6.747c-7.375,4.281-13.738,8.515-20.816,13.25
		c-2.636,1.765-5.009,3.878-7.471,5.871c-1.181,0.956-1.765,1.419-3.699,2.765c-1.934,1.344-1.41,0.955-3.36,1.676
		c0.32-1.974,2.381-3.627,3.496-5.201c1.524-2.151,2.799-4.471,4.341-6.61c1.892-2.624,2.863-4.291,5.202-8.015
		c2.339-3.725,4.382-8.118,6.311-12.217c1.038-2.203,2.479-4.914,2.416-7.408c-1.555-2.285-4.665,1.8-5.745,3.568
		c-2.953,4.828-6.39,9.426-8.995,14.455c-2.968,5.729-5.757,11.694-8.181,17.674c-0.731,1.81-1.354,3.664-2.32,5.367
		c-0.653,1.15-1.468,2.286-2.405,3.369c-3.104,3.59-7.545,6.6-11.841,7.604c-1.88,0.438-4.846-0.396-6.017,1.646
		c-0.371,0.646-0.377,1.998,0.759,1.602c1.643-0.599,4.76-2.021,7.349-1.039c2.504,1.228-0.126,3.535-1.998,6.662
		c-0.691,1.252-2.289,2.951-3.353,4.482c-2.532,3.643-5.028,7.447-7.543,11.131c-1.365,1.999-1.614,2.877-4.469,6.396
		c-2.854,3.521-8.367,8.886-14.37,9.657c-3.288,0.422,0.036-1.779-1.504-2.834c-0.458,0.445-1.372,0.582-1.319,1.33
		c-0.894,0.746-0.488,2.381,0.362,2.996c2.144,1.551,5.71-0.385,7.623-1.475c2.995-1.705,5.801-3.771,8.177-6.273
		c5.476-5.77,9.771-13.175,14.007-19.874c1.29-2.037,2.417-3.695,3.782-5.672c1.365-1.977,2.633-3.787,3.223-3.978
		c1.817-0.321,3.082,2.092,3.531,3.489c0.597,1.865,0.373,3.867,0.02,5.754c-0.562,3.006-0.899,6.05-1.485,9.048
		c-0.706,3.603-1.149,6.964-0.851,10.639c0.219,2.707-0.105,5.842,2.124,7.844c1.687,1.516,4.274,2.129,5.631-0.182
		c0.72-1.229,1.063-2.695,1.323-4.084c0.634-3.412,1.082-6.944,0.973-10.416c-0.153-4.853-1.158-9.979-3.183-14.413
		c-0.817-1.788-1.825-3.141-1.663-5.203c0.191-2.431,1.148-4.785,1.758-7.13c0.732-2.815,1.542-5.845,2.9-8.433
		c0.486-0.926,0.965-2.109,1.95-2.598c1.555-0.769,3.123-1.312,4.508-2.39c3.447-2.679,6.86-5.44,10.476-7.784
		c5.669-3.676,11.111-7.544,17.04-10.846c3.095-1.725,6.106-3.596,9.202-5.321c1.351-0.753,2.719-1.442,4.013-2.288
		c1.037-0.68,2.169-1.562,3.448-1.669c-2.246,4.091-5.253,7.677-5.411,12.563c-0.215,6.677,7.375,11.018,12.433,13.848
		c1.52,0.852,3.125,1.342,4.723,2.081c5.772,2.669,14.992,4.708,17.26,11.569c1.144,3.464-0.314,6.632-2.226,9.441
		c-0.819,1.207-2.213,2.557-3.208,3.707c-1.249,1.442-2.618,2.799-4.149,3.942c-4.774,3.567-9.694,6.224-15.099,8.622
		c-6.392,2.835-13.175,5.066-20.189,5.551c-2.266,0.154-9.843,1.815-10.938-1.29c-0.59-1.678,3.961-2.205,3.477-3.873
		c-0.285-0.979-1.997,0.024-2.451,0.331c-1.269,0.857-2.451,2.383-2.527,3.967c-0.068,1.387,1.101,2.535,2.327,2.857
		c3.192,0.837,7.473-0.066,10.668-0.43c4.766-0.535,9.5-1.396,14.07-2.881c4.787-1.552,9.618-3.65,14.087-5.963
		c0.976-0.505,1.716-1.31,2.654-1.898c1.578-0.986,3.029-2.026,4.441-3.24c3.104-2.665,6.6-5.538,8.789-9.042
		C132.51,230.364,129.964,222.282,122.387,219.114 M109.485,180.202c0.179-0.137,0.854-0.729,0.854-0.729s1.242-1.357,2.534-2.052
		c2.516-1.351,2.685-2.038,7.837-3.058c5.153-1.02,4.834-0.638,7.62-0.57c2.788,0.064,2.716,0.375,3.201,0.652
		c0.484,0.281-1.396,0.346-2.108,0.5c-3.919,0.846-7.722,1.767-11.523,3.066c-3.122,1.068-6.147,2.393-9.257,3.482
		c-0.394,0.138-0.815,0.162-1.199,0.336C108.036,181.223,108.802,180.716,109.485,180.202 M53.045,207.534
		c1-2.791,2.696-5.969,3.677-7.985s5.436-9.276,8.559-14.396c1.137-1.863,4.479-7.259,5.144-7.313
		c1.428,0.495-0.46,2.996-0.46,2.996s-0.39,0.813-1.94,4.194l-7.031,13.309c-3.283,5.385-3.283,5.385-5.74,8.783
		c-2.457,3.396-1.574,3.004-2.949,3.6C52.348,209.647,52.684,208.544,53.045,207.534 M37.019,230.454
		c-0.76-0.43-0.526-0.262-0.76-0.43c-0.234-0.166-0.641-0.551-0.392-0.597c0.25-0.047,0.605-0.187,0.605-0.187
		s0.566-0.323,1.238-0.74c1.916-1.318,3.011-2.208,3.649-2.536c0.016-0.003,0.03-0.004,0.045-0.005
		c-0.169,0.67-0.162,0.438-1.12,2.002C37.779,230.883,37.779,230.883,37.019,230.454 M45.251,243.782
		c1.984,5.299,2.904,11.145,2.476,16.79c-0.151,1.987-1.629,11.238-4.801,9.225c-3.172-2.016-2.521-5.256-2.526-7.742
		c-0.007-3.739-0.529-3.651,1.018-12.44c1.546-8.787,1.459-10.303,2.042-9.254C44.044,241.407,44.843,242.694,45.251,243.782
		 M43.353,233.292c-0.462,1.949-0.432,2.055-1.096,2.275c-0.012,0.002-1.398-2.045-2.534-3.052c-1.491-0.948-0.607-1.33,1.365-4.052
		c1.727-2.188,0.07,0.016,1.74-2.35c2.031-2.39,3.07-3.549,3.07-3.549S43.816,231.342,43.353,233.292"/>
</g>
<g id="Layer_2">
	<path fill="#A98B11" d="M95.549,71.721c0.763-0.121,1.404-0.584,1.081-1.388c-0.399-0.993-2.641-0.655-2.889,0.296
		C93.513,71.504,94.621,71.867,95.549,71.721 M85.993,90.39c0.478,1.467,0.857,2.249,2.491,1.852
		c0.976-0.238,1.652-0.931,2.286-1.669c0.165-0.192,1.77-2.328,1.592-2.359c0.103,0.019,0.187-0.016,0.25-0.098
		c1.639,2.166,4.169-0.877,5.228-2.311c0.563-0.761,0.902-1.348,1.261-2.224c0.137-0.335,0.188-1.053,0.601-1.1
		c0.057,0.266,0.041,0.566,0.014,0.842c0.033-0.001-0.258,1.302-0.229,1.287c-0.158,0.965-0.387,0.746-0.042,1.728
		c0.45,1.284,1.122,0.181,1.544-0.326c0.611-0.734,0.873-1.317,1.292-2.163c0.601-1.217,1.011-2.855,2.084-3.753
		c0.34-0.286,0.59-0.325,0.85,0.018c0.483,0.637,0.204,2.035,0.163,2.765c-0.019,0.354-0.081,0.727-0.077,1.078
		c0.01,1.059,0.15,2.026,0.285,3.071c0.05,0.383,0.01,0.88,0.37,1.112c0.367,0.234,0.981,0.026,1.19-0.332
		c0.275-0.469-0.125-1.17-0.217-1.653c-0.247-1.308-0.047-2.644-0.143-3.963c-0.076-1.053,0.001-2.67-0.831-3.453
		c-1.002-0.943-2.327,0.015-2.934,0.929c-0.366,0.551-0.775,1.074-1.085,1.661c-0.231,0.44-0.212,1.001-0.524,1.393
		c-0.654-0.412,0.331-2.018-0.065-2.71c-0.966-1.685-2.368,0.605-2.703,1.451c-0.495,1.255-0.978,2.525-1.779,3.623
		c-0.53,0.726-1.324,1.754-2.181,2.091c-1.566,0.616-1.096-1.884-1.027-2.616c0.088-0.952,0.137-1.939,0.148-2.896
		c0.007-0.571-0.131-1.147-0.719-0.543c-0.927,0.95-0.672,2.759-0.913,3.985c-0.208,1.055-0.657,2-1.152,2.945
		c-0.384,0.735-2.426,3.749-3.472,2.598c-0.625-0.687-0.546-2.098-0.536-2.958c0.011-0.824,0.036-1.675,0.168-2.49
		c0.261-1.625,0.249-3.24,0.362-4.877c0.035-0.502,0.174-1.4,0.367-1.851c0.067-0.153,1.084-0.997,1.082-1
		c0.027,0.06,0.586-0.415,0.802-0.559c0.098-0.042,3.067-1.44,3.493-1.511c0.445-0.075,1.739,0.091,1.375-0.778
		c-0.194-0.462-0.671-0.46-1.097-0.408c-1.215,0.15-2.433,0.898-3.536,1.392c-0.663,0.298-1.558,1.032-2.182,1.411
		c0.118-0.071,0.611-2.327,0.646-2.555c0.078-0.513,0.116-1.34-0.613-1.311c-0.436,0.017-0.717,0.568-0.828,0.919
		c-0.345,1.097-0.037,2.283-0.375,3.38c-0.431,1.396-3.218,2.149-4.42,2.539c-0.868,0.281-2.079,0.955-1.576,2.076
		c0.967,2.151,3.485-1.878,4.744-1.637c1.541,0.295,0.644,3.26,0.464,4.331c-0.271,1.607-0.603,3.231-1.21,4.748
		c-0.329,0.822-0.507,1.737-0.901,2.526c-0.121,0.239-0.641,0.79-0.58,1.072c-0.337-1.562-0.664-3.006-1.308-4.491
		c-0.46-1.057-2.004-2.685-2.846-1.193c-0.557,0.987-0.646,2.158-1.021,3.209c-0.441,1.237-0.813,2.486-1.162,3.749
		c0,0-0.146,0.333-0.867,1.849c0.353-0.948-0.769,1.672-2.407,1.117c-1.152-0.39-1.226-0.625-1.175-1.836
		c0.064-1.54,1.048-3.393,0.022-4.818c-0.399-0.557-1.114-0.508-1.617-0.142c-0.641,0.468-0.713,1.214-0.714,1.953
		c-0.001,2.03,0.687,3.92-0.248,5.829c-0.643,1.315-1.901,3.019-3.593,2.264c-1.542-0.688-1.369-2.791-1.195-4.166
		c0.093-0.737,0.193-1.483,0.331-2.213c0.292-1.549,0.791-2.827-0.365-2.648c-0.695,0.107-0.997,1.481-1.11,2.005
		c-0.246,1.139-0.248,2.332-0.168,3.489c0.117,1.713,0.356,3.891,1.879,4.97c1.45,1.029,2.738,0.115,3.752-1.011
		c0.239-0.265,2.375-2.878,2.077-3.086c0.756,0.53,1.221,1.202,2.319,1.21c4.176,0.031,5.209-4.888,5.713-8.143
		c0.065-0.421,0.158-2.22,0.771-2.262c0.282-0.019,0.954,0.94,1.084,1.154c0.336,0.553,0.495,1.207,0.61,1.836
		c0.161,0.869,0.485,2.584-0.414,3.178c-0.255,0.168-0.461,0.09-0.739,0.082c-0.444-0.014-1.142,0.188-1.465,0.509
		c-0.397,0.395-0.251,1.166,0.136,1.509c0.899,0.797,1.786-0.17,2.571-0.498c1.445-0.605,2.37-2.162,2.876-3.571
		c0.169-0.471,0.449-0.998,0.554-1.46C85.57,91.108,85.701,90.64,85.993,90.39 M194.926,31.187c0.015,0,0.034-0.003,0.064-0.011
		c0.008-0.004,0.019-0.004,0.026-0.008c-0.019,0.004-0.043,0.008-0.065,0.012C194.939,31.183,194.933,31.183,194.926,31.187
		 M186.172,43.767c-0.025,0.035-0.047,0.066-0.063,0.091c-0.002,0.026-0.003,0.055-0.007,0.088c0.063-0.05,0.157-0.136,0.187-0.142
		C186.273,43.807,186.215,43.783,186.172,43.767 M184.271,32.275c0.026-0.054,0.053-0.104,0.08-0.153
		c0.004-0.008,0.007-0.016,0.011-0.024C184.271,32.102,184.287,32.204,184.271,32.275 M262.959,2.876
		c-1.114-1.401-2.394-2.288-4.084-2.647c-1.818-0.388-3.252-0.224-5.081,0.054c-2.141,0.326-4.22,0.914-6.267,1.616
		c-1.537,0.526-3.049,1.121-4.541,1.764c-4.789,2.068-9.506,4.307-14.113,6.763c-3.467,1.848-10.237,6.245-10.237,6.245
		s-2.113,1.151-3.115,1.891c-0.876,0.646-1.812,1.199-2.677,1.861c-0.5,0.383-1.825,1.661-2.06,0.371
		c-0.094-0.521-0.057-1.197,0.067-1.714c0.199-0.815,0.341-1.387,0.48-2.263c0.166-1.022,0.187-2.062,0.238-3.094
		c0.024-0.521-0.048-1.31-0.173-1.82c-0.288-1.175-1.174-1.523-1.62-0.099c-0.331,1.048-0.217,2.227-0.219,3.31
		c-0.005,1.29-0.104,2.574-0.269,3.854c-0.088,0.677-0.192,1.351-0.307,2.023c-0.046,0.254-0.104,1.364-0.318,1.518
		c-0.102,0.968-0.102,0.968-2.597,2.235c-1.271,0.644-2.56,1.254-3.87,1.805c-1.038,0.438-2.98,1.797-4.029,0.909
		c-0.724-0.614-0.593-2.098-0.56-2.931c0.087-2.162,0.618-4.265,1.129-6.355c0.646-2.635,0.302-4.317-0.554-3.856
		c-1.164,1.005-1.844,4.632-1.992,9.39c-0.147,4.757,0.836,4.15-1.694,5.467c-1.603,0.835-3.542,1-5.291,1.359
		c-3.972,0.816-4.34,0.647-4.854,1.592c-0.14,0.306-0.245,0.606-0.082,0.814c0-0.05,0.073-0.105,0.093,0
		c1.217,4.173,5.866,6.067,8.576,9.089c0.917,1.021,1.148,2.078,0.842,3.427c-0.415,1.828-2.141,5.791-4.454,5.786
		c-2.958-0.007-1.894-3.576-1.367-5.191c0.511-1.562,1.002-3.266-0.491-4.459c-2.291-1.833-2.425,2.616-2.422,3.954
		c0.003,2.627-1.052,9.417-5.127,8.78c-3.145-0.492-0.894-3.892-0.355-5.417c1.056-3.006,1.661-6.156,1.857-9.335
		c0.109-1.741,0.02-4.351-2.073-4.863c-0.992-0.243-1.525,0.453-1.923,1.244c-1.616,3.211-1.865,6.795-1.811,10.336
		c0.027,1.685,0.197,3.38,0.137,5.066c-0.061,1.634-0.923,2.942-1.86,4.322c-0.535,0.787-3.739,3.799-4.72,2.405
		c-0.245-0.352,0.156-1.624,0.156-2.054c0.004-0.914-0.059-2.772-1.043-3.15c-0.868-0.334-2.326,0.651-2.917,1.193
		c-0.661,0.605-0.745,2.484-0.934,3.299c-0.767,1.302-0.587,4.453-2.62,3.257c-2.073-1.219-0.214-3.966-2.03-5.047
		c-1.086-0.646-3.066-0.062-4.009,0.605c-1.118,0.792-1.826,2.034-2.632,3.115c-0.59,0.791-1.208,1.584-1.732,2.423
		c-1.318,2.11-3.953,5.129-6.067,6.462c-1.417,0.891-3.277,1.703-4.773,0.47c-1.458-1.204-1.771-3.842-0.564-5.673
		c2.336-3.544,5.074,1.969,4.935-0.324c-0.093-1.527-2.579-3.625-3.998-3.762c0.379,0.931-0.331,1.244-1.016,1.64
		c-0.848,0.488-1.317,1.21-1.646,2.133c-0.272,0.759-0.516,1.809-0.527,2.611c-0.024,1.972,0.854,4.997,2.763,5.888
		c1.555,0.728,3.223,0.346,4.652-0.505c1.052-0.627,1.935-1.833,2.768-2.708c0.804-0.844,1.464-1.812,2.266-2.656
		c0.727-0.767,1.313-1.691,2.086-2.41c0.336-0.312,1.521-2.04,1.621-1.596s0.518,4.196,2.735,4.172
		c1.322-0.015,2.112-1.29,2.555-2.38c0.265-0.651,0.489-1.067,0.66-2.179c1.229,0.492,2.395,2.562,4.249,1.237
		c1.188-0.85,1.357-3.162,1.518-4.508l0.21-1.281c0.155-0.677,1.189-2.267,1.765-1.23c-0.111,1.265-0.461,2.916-0.314,4.01
		c0.419,3.115,4.563,0.711,6.631-1.326c1.969-2.906,1.397-2.976,2.747-3.456c0.935-0.333,2.206,1.006,3.131,1.206
		c1.819,0.392,3.026-0.654,4.197-1.863c0.297-0.305,2.452-2.217,2.225-2.693c0.923,1.86,3.269,2.291,5.062,1.562
		c2.008-0.817,2.862-2.959,3.444-4.898c0.085-0.284,1.212-3.949,1.512-3.74c2.189,1.554,4.04,3.54,6.223,5.112
		c1.501,1.082,3.873,3.009,5.875,2.609c2.413-0.483,1.513-1.95,0.902-5.331c-0.307-2.013-0.385-4.253-0.385-4.253l0.835-11.917
		c0,0,0.56-4.83,0.927-5.028c0.035-0.019,0.369-1.183,0.566-1.387c0.397-0.412,0.919-0.682,1.383-1.005
		c1.364-0.95,2.736-1.928,4.096-2.895c4.443-3.152,8.588-5.608,13.353-8.221c1.425-0.78,2.937-1.38,4.41-2.058
		c2.699-1.241,5.237-2.797,7.909-4.091c2.756-1.335,5.638-2.108,8.572-2.929c1.685-0.472,3.464-0.686,5.182-0.594
		c1.593,0.085,3.422,0.239,4.702,1.302c0.617,0.512,1.814,1.788,0.641,2.28c-0.563,0.235-2.887-0.161-2.551,0.911
		c0.492,1.575,2.951,0.866,3.96,0.506C264.793,6.239,263.891,4.05,262.959,2.876 M157.185,63.382
		c-0.342,0.55-1.428-0.221-1.595-0.55c-0.279-0.539-0.283-1.338-0.25-1.931c0.003-0.071,0.009-0.144,0.016-0.217
		c0.112-1.18,0.608-2.549,1.627-3.209c0.159-0.104,1.922-0.493,1.871-0.237C158.429,59.417,158.181,61.775,157.185,63.382
		 M177.034,49.323c-0.361,0.026-0.193-2.056,0.02-3.897c0.155-1.33,0.338-2.536,0.363-2.73c0.247-1.789,0.446-4.182,1.576-5.66
		c0.195-0.255,0.729,1.313,0.741,1.395c0.103,0.655,0.005,1.382-0.063,2.037c-0.201,1.901-0.491,3.814-1.069,5.639
		C178.435,46.634,177.693,49.276,177.034,49.323 M186.309,47.182c-0.171,0.032-0.239-2.494-0.207-3.236
		c-0.062,0.051-0.092,0.062,0.007-0.088c0.003-0.049,0.008-0.089,0.013-0.105c0.004-0.003,0.024,0.004,0.051,0.015
		c0.062-0.089,0.15-0.209,0.274-0.375C187.53,40.804,188.153,45.428,186.309,47.182 M195.637,37.247
		c-0.031,1.123-0.22,3.745-1.985,3.252c-1.595-0.444-2.451-1.192-3.848-2.714c-1.396-1.522-1.832-2.022-2.584-2.853
		c-0.516-0.568-0.729-0.986-0.672-1.31c0.322-1.781,4.372-1.655,5.689-2.023c0.771-0.216,0.771-0.216,2.421-0.554
		C196.31,30.708,196.033,31.687,195.637,37.247 M207.529,49.319c-0.401,0.178-2.909-0.821-2.814-1.016
		c0.41-0.85,1.017-1.581,1.456-2.475c0.112-0.229,0.192-0.486,0.268-0.749c0.178-0.615,0.328-1.261,0.806-1.663
		c-0.281,0.237,0.19,1.849,0.463,3.811C207.978,49.188,208.505,48.885,207.529,49.319 M208.062,30.597c0,0-0.393,7.563-1.638,11.207
		c-0.614,1.798-1.173,4.654-3.497,4.875c-2.038,0.193-3.93-1.908-4.875-3.446c-1.019-1.664-0.974-3.689-0.942-5.592
		c-0.078-7.441,0.515-7.135,2.464-8.614c1.447-0.593,4.916-2.235,4.916-2.235l3.263-1.505c0.323,0.013,0.062-0.16,0.634-0.171
		C208.304,28.002,208.062,30.597,208.062,30.597 M100.695,129.58c-0.062,0.035-0.124,0.066-0.186,0.092
		C100.578,129.654,100.691,129.669,100.695,129.58 M146.866,81.887c-2.91-1.222-5.714-2.685-8.624-3.898
		c-7.127-2.973-16.02-6.296-20.933-12.607c-3.643-4.678-2.449-9.878,0.171-14.643c1.181-2.148,2.744-4.05,4.067-6.106
		c0.039,0.066-0.06,0.141-0.021,0.226c1.025-1.584,2.405-2.998,3.949-4.071c1.144-0.795,2.369-1.469,3.633-2.052
		c2.205-1.017,4.523-1.757,6.835-2.479c2.385-0.744,4.723-1.622,7.103-2.381c3.297-1.053,6.794-1.847,10.182-2.548
		c3.821-0.79,8.026-1.269,11.818-0.08c0.767,0.241,1.596,0.772,2.423,0.649c1.34-0.201,1.031-1.555,0.248-2.161
		c-0.713-0.552-1.673-0.741-2.518-0.992c-2.378-0.708-4.563-1.847-7.011-2.342c-2.512-0.506-5.098-0.583-7.651-0.51
		c-5.452,0.157-11.456,1.079-16.105,4.124c-1.917,1.255-3.676,2.748-5.427,4.225c-3.157,2.661-6.712,5.815-10.501,7.541
		c-7.145,3.255-11.819,6.126-15.26,8.134c-8.85,5.161-16.486,10.267-24.979,15.974c-3.164,2.126-6.01,4.677-8.965,7.078
		c-1.417,1.153-2.118,1.713-4.439,3.333c-2.321,1.62-1.691,1.152-4.032,2.02c0.383-2.378,2.856-4.373,4.193-6.27
		c1.83-2.596,3.36-5.39,5.212-7.97c2.27-3.164,3.435-5.172,6.241-9.664c2.807-4.49,5.259-9.786,7.572-14.726
		c1.245-2.656,2.975-5.926,2.897-8.932c-1.865-2.756-5.596,2.17-6.893,4.301c-3.542,5.822-7.666,11.364-10.792,17.428
		c-3.562,6.908-6.91,14.099-9.816,21.309c-0.879,2.179-1.625,4.416-2.785,6.469c-0.783,1.387-1.761,2.756-2.885,4.062
		c-3.725,4.329-9.055,7.956-14.209,9.166c-2.256,0.529-5.814-0.475-7.221,1.987c-0.444,0.778-0.452,2.407,0.912,1.93
		c1.972-0.723,5.71-2.438,8.817-1.254c3.006,1.481-0.151,4.262-2.396,8.034c-0.829,1.509-2.747,3.558-4.025,5.403
		c-3.038,4.391-6.033,8.979-9.052,13.42c-1.638,2.41-1.937,3.469-5.361,7.713c-3.426,4.243-10.042,10.71-17.246,11.642
		c-3.946,0.508,0.043-2.147-1.805-3.417c-0.55,0.536-1.646,0.702-1.583,1.602c-1.074,0.901-0.585,2.873,0.436,3.614
		c2.572,1.868,6.85-0.465,9.146-1.778c3.593-2.054,6.961-4.547,9.813-7.564c6.571-6.954,11.724-15.88,16.809-23.958
		c1.547-2.458,2.9-4.454,4.538-6.837c1.639-2.383,3.16-4.567,3.868-4.795c2.18-0.388,3.697,2.521,4.235,4.206
		c0.717,2.248,0.449,4.661,0.024,6.938c-0.674,3.623-1.078,7.292-1.782,10.907c-0.846,4.343-1.377,8.396-1.021,12.826
		c0.263,3.262-0.127,7.039,2.55,9.456c2.022,1.825,5.127,2.564,6.756-0.221c0.865-1.479,1.277-3.249,1.586-4.92
		c0.763-4.116,1.3-8.374,1.168-12.559c-0.184-5.849-1.388-12.031-3.818-17.377c-0.98-2.155-2.191-3.786-1.996-6.272
		c0.231-2.933,1.377-5.77,2.11-8.595c0.879-3.396,1.85-7.048,3.48-10.167c0.583-1.115,1.159-2.544,2.34-3.131
		c1.866-0.926,3.748-1.583,5.411-2.88c4.137-3.23,8.233-6.562,12.569-9.386c6.803-4.43,13.335-9.094,20.447-13.075
		c3.715-2.08,7.328-4.335,11.042-6.417c1.621-0.907,3.263-1.739,4.816-2.759c1.244-0.819,2.604-1.881,4.138-2.012
		c-2.696,4.932-6.305,9.256-6.494,15.148c-0.257,8.048,8.851,13.283,14.919,16.695c1.824,1.025,3.751,1.618,5.669,2.508
		c6.928,3.218,17.99,5.676,20.711,13.95c1.373,4.174-0.377,7.993-2.671,11.383c-0.984,1.451-2.657,3.079-3.851,4.467
		c-1.498,1.741-3.141,3.375-4.979,4.755c-5.729,4.3-11.633,7.504-18.118,10.394c-7.668,3.418-15.809,6.11-24.227,6.691
		c-2.717,0.187-11.81,2.188-13.124-1.555c-0.709-2.021,4.753-2.657,4.171-4.669c-0.341-1.18-2.396,0.03-2.941,0.399
		c-1.523,1.034-2.941,2.875-3.032,4.782c-0.082,1.673,1.322,3.058,2.793,3.444c3.831,1.008,8.968-0.082,12.802-0.516
		c5.718-0.646,11.401-1.685,16.884-3.472c5.743-1.873,11.542-4.403,16.904-7.19c1.172-0.609,2.059-1.578,3.186-2.288
		c1.893-1.191,3.633-2.446,5.329-3.908c3.726-3.212,7.92-6.676,10.549-10.903C159.012,95.453,155.958,85.705,146.866,81.887
		 M131.384,34.974c0.215-0.163,1.026-0.878,1.026-0.878s1.491-1.637,3.041-2.474c3.018-1.626,3.221-2.457,9.405-3.685
		c6.184-1.229,5.801-0.768,9.145-0.688c3.345,0.08,3.258,0.451,3.84,0.79c0.58,0.338-1.676,0.417-2.529,0.601
		c-4.704,1.019-9.267,2.13-13.828,3.698c-3.747,1.287-7.376,2.882-11.109,4.197c-0.473,0.167-0.977,0.198-1.439,0.406
		C129.644,36.207,130.565,35.595,131.384,34.974 M63.656,67.925c1.2-3.364,3.236-7.197,4.412-9.627
		c1.177-2.43,6.523-11.183,10.272-17.354c1.365-2.246,5.375-8.751,6.171-8.818c1.713,0.597-0.551,3.613-0.551,3.613
		s-0.469,0.981-2.329,5.056l-8.437,16.044c-3.939,6.493-3.939,6.493-6.888,10.589c-2.948,4.095-1.889,3.623-3.54,4.34
		C62.82,70.473,63.222,69.143,63.656,67.925 M44.427,95.56c-0.913-0.518-0.631-0.315-0.913-0.518
		c-0.281-0.203-0.77-0.665-0.47-0.721c0.3-0.056,0.727-0.224,0.727-0.224s0.679-0.391,1.485-0.893c2.3-1.591,3.613-2.663,4.38-3.059
		c0.018-0.002,0.037-0.004,0.054-0.006c-0.203,0.808-0.194,0.526-1.344,2.415C45.339,96.077,45.339,96.077,44.427,95.56
		 M54.303,111.628c2.382,6.387,3.485,13.433,2.971,20.238c-0.181,2.398-1.953,13.553-5.759,11.123
		c-3.807-2.429-3.025-6.337-3.031-9.333c-0.008-4.507-0.635-4.402,1.221-14.997c1.856-10.595,1.752-12.422,2.452-11.158
		C52.855,108.763,53.814,110.316,54.303,111.628 M52.026,98.98c-0.556,2.351-0.518,2.477-1.316,2.742
		c-0.014,0.005-1.677-2.466-3.041-3.677c-1.788-1.145-0.727-1.604,1.639-4.886c2.072-2.636,0.083,0.017,2.087-2.832
		c2.438-2.88,3.685-4.278,3.685-4.278S52.582,96.628,52.026,98.98"/>
</g>
</svg>
