<?xml version="1.0" encoding="utf-8"?>
<!-- Generator: Adobe Illustrator 15.1.0, SVG Export Plug-In . SVG Version: 6.00 Build 0)  -->
<!DOCTYPE svg PUBLIC "-//W3C//DTD SVG 1.1//EN" "http://www.w3.org/Graphics/SVG/1.1/DTD/svg11.dtd">
<svg version="1.1" xmlns="http://www.w3.org/2000/svg" xmlns:xlink="http://www.w3.org/1999/xlink" x="0px" y="0px" width="335px"
	 height="313.216px" viewBox="0 0 335 313.216" enable-background="new 0 0 335 313.216" xml:space="preserve">
<g id="Layer_1">
	<path fill-rule="evenodd" clip-rule="evenodd" fill="#DC0032" d="M79.624,252.275c0.636-0.1,1.17-0.484,0.9-1.152
		c-0.333-0.823-2.201-0.543-2.407,0.246C77.927,252.096,78.85,252.396,79.624,252.275 M71.66,267.761
		c0.399,1.217,0.716,1.866,2.077,1.535c0.813-0.196,1.376-0.772,1.905-1.385c0.138-0.159,1.475-1.931,1.327-1.955
		c0.086,0.014,0.154-0.015,0.208-0.083c1.366,1.797,3.475-0.727,4.356-1.917c0.469-0.63,0.753-1.117,1.052-1.845
		c0.112-0.277,0.155-0.872,0.499-0.911c0.049,0.221,0.035,0.469,0.012,0.699c0.029-0.001-0.215,1.08-0.191,1.065
		c-0.131,0.802-0.321,0.619-0.035,1.434c0.375,1.066,0.935,0.15,1.287-0.27c0.51-0.608,0.729-1.093,1.078-1.793
		c0.5-1.011,0.843-2.368,1.736-3.113c0.283-0.237,0.492-0.271,0.708,0.015c0.403,0.528,0.17,1.688,0.136,2.294
		c-0.016,0.292-0.068,0.603-0.064,0.894c0.009,0.878,0.125,1.68,0.238,2.547c0.042,0.317,0.008,0.732,0.308,0.924
		c0.306,0.193,0.817,0.021,0.992-0.275c0.229-0.391-0.104-0.971-0.181-1.372c-0.206-1.084-0.039-2.192-0.119-3.286
		c-0.064-0.873,0-2.216-0.692-2.863c-0.836-0.783-1.939,0.011-2.445,0.77c-0.306,0.457-0.646,0.892-0.905,1.379
		c-0.193,0.364-0.176,0.829-0.436,1.154c-0.544-0.342,0.276-1.674-0.055-2.249c-0.804-1.396-1.973,0.503-2.251,1.204
		c-0.413,1.042-0.814,2.095-1.482,3.005c-0.443,0.603-1.104,1.456-1.819,1.735c-1.304,0.512-0.912-1.562-0.854-2.17
		c0.074-0.789,0.114-1.608,0.124-2.402c0.004-0.474-0.11-0.952-0.599-0.451c-0.772,0.789-0.561,2.288-0.761,3.306
		c-0.174,0.874-0.548,1.658-0.96,2.442c-0.321,0.609-2.023,3.108-2.895,2.155c-0.52-0.57-0.454-1.742-0.445-2.454
		c0.009-0.683,0.03-1.389,0.139-2.066c0.218-1.348,0.207-2.686,0.302-4.045c0.028-0.416,0.144-1.162,0.305-1.535
		c0.057-0.127,0.904-0.826,0.902-0.83c0.022,0.05,0.489-0.344,0.668-0.463c0.082-0.036,2.555-1.195,2.911-1.255
		c0.371-0.062,1.45,0.077,1.147-0.645c-0.162-0.383-0.559-0.382-0.915-0.339c-1.012,0.124-2.028,0.744-2.947,1.155
		c-0.552,0.246-1.298,0.855-1.817,1.17c0.097-0.06,0.509-1.931,0.538-2.118c0.064-0.427,0.096-1.113-0.512-1.088
		c-0.362,0.014-0.597,0.471-0.688,0.763c-0.289,0.909-0.033,1.893-0.314,2.803c-0.358,1.158-2.681,1.783-3.682,2.105
		c-0.724,0.233-1.733,0.792-1.314,1.723c0.807,1.785,2.904-1.559,3.954-1.358c1.283,0.245,0.537,2.704,0.386,3.593
		c-0.227,1.333-0.503,2.681-1.008,3.938c-0.273,0.682-0.423,1.44-0.752,2.096c-0.101,0.198-0.533,0.655-0.482,0.89
		c-0.281-1.296-0.554-2.496-1.09-3.726c-0.383-0.877-1.67-2.227-2.372-0.989c-0.463,0.817-0.539,1.789-0.85,2.66
		c-0.369,1.027-0.677,2.063-0.969,3.11c0,0-0.123,0.277-0.723,1.534c0.295-0.787-0.641,1.387-2.005,0.927
		c-0.961-0.324-1.022-0.52-0.979-1.523c0.053-1.277,0.873-2.814,0.019-3.998c-0.334-0.461-0.929-0.421-1.348-0.117
		c-0.534,0.389-0.594,1.007-0.595,1.621c-0.002,1.684,0.572,3.25-0.208,4.834c-0.535,1.089-1.584,2.504-2.994,1.878
		c-1.285-0.57-1.141-2.314-0.995-3.456c0.077-0.611,0.161-1.23,0.275-1.835c0.244-1.286,0.659-2.344-0.303-2.196
		c-0.58,0.088-0.832,1.229-0.925,1.662c-0.206,0.946-0.208,1.936-0.142,2.895c0.098,1.422,0.297,3.227,1.566,4.122
		c1.209,0.854,2.282,0.095,3.127-0.839c0.199-0.218,1.98-2.387,1.73-2.56c0.631,0.439,1.018,0.998,1.933,1.005
		c3.481,0.024,4.342-4.055,4.76-6.756c0.055-0.35,0.132-1.84,0.643-1.875c0.236-0.017,0.796,0.779,0.904,0.957
		c0.28,0.459,0.413,1.001,0.509,1.523c0.135,0.72,0.405,2.144-0.345,2.635c-0.212,0.141-0.385,0.074-0.615,0.068
		c-0.37-0.011-0.952,0.156-1.222,0.423c-0.331,0.326-0.209,0.967,0.113,1.251c0.749,0.661,1.489-0.141,2.143-0.412
		c1.205-0.502,1.975-1.794,2.396-2.963c0.142-0.391,0.375-0.828,0.463-1.212C71.309,268.354,71.417,267.967,71.66,267.761
		 M162.438,218.654c0.013,0,0.028-0.004,0.055-0.011c0.006-0.002,0.016-0.002,0.022-0.006c-0.017,0.004-0.036,0.006-0.055,0.01
		C162.45,218.65,162.444,218.65,162.438,218.654 M155.144,229.089c-0.021,0.028-0.04,0.055-0.053,0.075
		c-0.002,0.022-0.003,0.045-0.005,0.073c0.052-0.042,0.129-0.114,0.155-0.118C155.228,229.121,155.179,229.103,155.144,229.089
		 M153.56,219.557c0.021-0.046,0.043-0.086,0.066-0.127c0.002-0.006,0.005-0.013,0.009-0.021
		C153.56,219.412,153.573,219.497,153.56,219.557 M219.134,195.172c-0.931-1.162-1.995-1.897-3.404-2.197
		c-1.516-0.321-2.709-0.186-4.232,0.046c-1.785,0.27-3.518,0.758-5.224,1.34c-1.281,0.438-2.541,0.931-3.784,1.463
		c-3.991,1.716-7.921,3.572-11.76,5.61c-2.89,1.533-8.534,5.18-8.534,5.18s-1.76,0.954-2.596,1.569
		c-0.729,0.535-1.509,0.993-2.229,1.542c-0.418,0.318-1.522,1.379-1.718,0.309c-0.078-0.433-0.048-0.994,0.058-1.422
		c0.165-0.676,0.282-1.151,0.4-1.877c0.137-0.849,0.154-1.711,0.197-2.566c0.021-0.433-0.039-1.086-0.144-1.51
		c-0.24-0.975-0.978-1.264-1.351-0.083c-0.274,0.87-0.18,1.848-0.183,2.746c-0.003,1.07-0.086,2.136-0.224,3.198
		c-0.072,0.561-0.16,1.119-0.255,1.677c-0.037,0.211-0.085,1.131-0.266,1.259c-0.084,0.803-0.084,0.803-2.163,1.854
		c-1.059,0.534-2.132,1.039-3.225,1.498c-0.866,0.362-2.483,1.491-3.357,0.755c-0.604-0.511-0.495-1.741-0.468-2.432
		c0.072-1.795,0.515-3.539,0.94-5.272c0.538-2.185,0.251-3.58-0.461-3.198c-0.971,0.835-1.538,3.843-1.661,7.789
		c-0.122,3.946,0.698,3.44-1.411,4.533c-1.336,0.692-2.953,0.829-4.409,1.128c-3.311,0.677-3.617,0.536-4.046,1.32
		c-0.115,0.255-0.203,0.503-0.069,0.675c0-0.041,0.062-0.086,0.078,0c1.014,3.462,4.889,5.033,7.146,7.539
		c0.764,0.848,0.958,1.724,0.702,2.843c-0.347,1.517-1.784,4.804-3.711,4.799c-2.465-0.006-1.577-2.966-1.139-4.305
		c0.424-1.296,0.834-2.71-0.411-3.7c-1.91-1.519-2.02,2.171-2.018,3.279c0.002,2.18-0.877,7.812-4.273,7.283
		c-2.621-0.408-0.743-3.229-0.297-4.492c0.882-2.496,1.387-5.107,1.55-7.745c0.09-1.443,0.017-3.606-1.728-4.032
		c-0.826-0.202-1.27,0.375-1.603,1.031c-1.345,2.664-1.553,5.638-1.507,8.573c0.021,1.397,0.163,2.804,0.112,4.203
		c-0.05,1.354-0.768,2.439-1.549,3.585c-0.446,0.651-3.117,3.151-3.933,1.994c-0.206-0.292,0.128-1.347,0.13-1.703
		c0.002-0.757-0.049-2.299-0.87-2.614c-0.723-0.276-1.938,0.541-2.432,0.991c-0.55,0.501-0.621,2.06-0.778,2.735
		c-0.638,1.08-0.489,3.693-2.182,2.701c-1.728-1.01-0.179-3.288-1.692-4.187c-0.905-0.535-2.555-0.051-3.34,0.503
		c-0.933,0.657-1.523,1.688-2.194,2.584c-0.491,0.655-1.006,1.313-1.443,2.008c-1.099,1.752-3.295,4.256-5.058,5.361
		c-1.179,0.739-2.73,1.413-3.976,0.39c-1.215-0.997-1.476-3.187-0.471-4.705c1.946-2.94,4.229,1.633,4.112-0.269
		c-0.078-1.267-2.149-3.007-3.333-3.119c0.316,0.772-0.274,1.031-0.847,1.358c-0.707,0.406-1.096,1.006-1.37,1.77
		c-0.228,0.63-0.431,1.501-0.44,2.166c-0.021,1.636,0.712,4.145,2.302,4.884c1.296,0.604,2.687,0.287,3.877-0.419
		c0.877-0.521,1.613-1.52,2.307-2.245c0.669-0.7,1.219-1.504,1.888-2.204c0.606-0.636,1.094-1.402,1.738-1.998
		c0.281-0.26,1.269-1.691,1.351-1.323c0.084,0.369,0.432,3.479,2.279,3.46c1.102-0.013,1.76-1.07,2.128-1.974
		c0.221-0.541,0.41-0.885,0.551-1.808c1.025,0.408,1.997,2.125,3.54,1.024c0.991-0.704,1.132-2.622,1.265-3.738l0.174-1.062
		c0.131-0.562,0.992-1.881,1.474-1.02c-0.094,1.048-0.385,2.418-0.263,3.325c0.349,2.584,3.804,0.591,5.526-1.099
		c1.64-2.411,1.166-2.469,2.29-2.867c0.779-0.276,1.837,0.835,2.608,1c1.516,0.325,2.522-0.543,3.498-1.545
		c0.248-0.253,2.045-1.84,1.854-2.234c0.77,1.542,2.725,1.899,4.219,1.295c1.673-0.679,2.385-2.454,2.871-4.062
		c0.07-0.235,1.01-3.274,1.26-3.103c1.824,1.289,3.366,2.937,5.185,4.242c1.251,0.896,3.229,2.494,4.897,2.163
		c2.011-0.4,1.259-1.617,0.751-4.422c-0.256-1.669-0.322-3.528-0.322-3.528l0.695-9.884c0,0,0.468-4.007,0.773-4.172
		c0.03-0.015,0.309-0.981,0.473-1.15c0.329-0.342,0.764-0.564,1.15-0.834c1.139-0.786,2.281-1.6,3.416-2.4
		c3.701-2.614,7.155-4.652,11.126-6.819c1.188-0.646,2.447-1.144,3.675-1.706c2.248-1.029,4.364-2.32,6.592-3.394
		c2.296-1.106,4.697-1.748,7.144-2.431c1.401-0.39,2.886-0.567,4.317-0.492c1.328,0.072,2.853,0.198,3.918,1.081
		c0.514,0.425,1.513,1.483,0.534,1.891c-0.47,0.195-2.404-0.132-2.126,0.756c0.411,1.307,2.461,0.719,3.302,0.421
		C220.663,197.962,219.909,196.145,219.134,195.172 M130.988,245.358c-0.286,0.455-1.189-0.184-1.331-0.456
		c-0.231-0.447-0.236-1.111-0.208-1.602c0.004-0.061,0.008-0.12,0.013-0.182c0.094-0.978,0.506-2.114,1.357-2.662
		c0.133-0.086,1.6-0.409,1.559-0.196C132.024,242.069,131.817,244.025,130.988,245.358 M147.528,233.696
		c-0.301,0.021-0.161-1.706,0.018-3.232c0.128-1.104,0.28-2.103,0.302-2.264c0.206-1.484,0.373-3.469,1.314-4.695
		c0.162-0.211,0.606,1.089,0.616,1.158c0.085,0.543,0.005,1.146-0.052,1.688c-0.167,1.577-0.409,3.164-0.891,4.679
		C148.696,231.467,148.079,233.658,147.528,233.696 M155.256,231.921c-0.142,0.025-0.198-2.069-0.171-2.684
		c-0.054,0.043-0.078,0.051,0.005-0.073c0.001-0.041,0.006-0.073,0.01-0.088c0.002-0.003,0.021,0.004,0.043,0.013
		c0.052-0.074,0.124-0.174,0.228-0.312C156.275,226.63,156.794,230.467,155.256,231.921 M163.032,223.682
		c-0.026,0.93-0.185,3.105-1.656,2.696c-1.33-0.368-2.042-0.989-3.206-2.251c-1.165-1.263-1.527-1.677-2.154-2.365
		c-0.431-0.473-0.608-0.82-0.559-1.087c0.269-1.478,3.643-1.373,4.74-1.678c0.643-0.181,0.643-0.181,2.019-0.459
		C163.592,218.257,163.361,219.069,163.032,223.682 M172.941,233.694c-0.335,0.147-2.425-0.682-2.347-0.843
		c0.344-0.706,0.848-1.312,1.213-2.055c0.096-0.19,0.162-0.403,0.224-0.62c0.147-0.51,0.273-1.045,0.671-1.38
		c-0.233,0.196,0.161,1.534,0.387,3.161C173.314,233.584,173.755,233.333,172.941,233.694 M173.384,218.164
		c0,0-0.327,6.273-1.364,9.296c-0.513,1.49-0.978,3.86-2.913,4.043c-1.698,0.161-3.275-1.581-4.062-2.856
		c-0.85-1.381-0.813-3.062-0.787-4.64c-0.064-6.172,0.43-5.918,2.054-7.145c1.206-0.492,4.097-1.854,4.097-1.854l2.719-1.25
		c0.27,0.012,0.051-0.131,0.528-0.142C173.587,216.012,173.384,218.164,173.384,218.164 M83.912,300.267
		c-0.051,0.029-0.104,0.055-0.154,0.078C83.816,300.327,83.909,300.341,83.912,300.267 M122.388,260.708
		c-2.424-1.015-4.761-2.228-7.188-3.234c-5.938-2.466-13.348-5.224-17.443-10.457c-3.036-3.88-2.041-8.194,0.143-12.146
		c0.985-1.783,2.285-3.357,3.389-5.064c0.032,0.054-0.05,0.118-0.018,0.188c0.854-1.314,2.004-2.486,3.291-3.377
		c0.954-0.659,1.975-1.218,3.028-1.702c1.837-0.844,3.77-1.457,5.696-2.056c1.987-0.617,3.936-1.346,5.917-1.977
		c2.748-0.871,5.661-1.532,8.486-2.112c3.184-0.655,6.688-1.053,9.848-0.066c0.639,0.199,1.331,0.641,2.02,0.537
		c1.117-0.166,0.858-1.289,0.207-1.791c-0.594-0.458-1.394-0.615-2.097-0.824c-1.982-0.586-3.803-1.531-5.844-1.941
		c-2.092-0.42-4.248-0.484-6.376-0.424c-4.542,0.131-9.545,0.896-13.42,3.421c-1.597,1.042-3.063,2.28-4.522,3.504
		c-2.631,2.209-5.594,4.824-8.751,6.255c-5.954,2.7-9.849,5.082-12.716,6.747c-7.375,4.281-13.738,8.515-20.816,13.25
		c-2.636,1.764-5.009,3.878-7.471,5.871c-1.181,0.956-1.765,1.419-3.699,2.765c-1.934,1.343-1.41,0.954-3.36,1.676
		c0.32-1.974,2.381-3.628,3.496-5.202c1.524-2.151,2.799-4.47,4.341-6.61c1.892-2.624,2.863-4.291,5.202-8.015
		c2.339-3.725,4.382-8.118,6.311-12.216c1.037-2.203,2.479-4.915,2.415-7.408c-1.554-2.286-4.664,1.799-5.744,3.567
		c-2.953,4.829-6.39,9.427-8.995,14.456c-2.968,5.729-5.757,11.694-8.181,17.674c-0.731,1.809-1.354,3.664-2.32,5.366
		c-0.653,1.151-1.468,2.287-2.405,3.37c-3.104,3.59-7.545,6.599-11.841,7.603c-1.88,0.438-4.846-0.396-6.017,1.647
		c-0.371,0.646-0.377,1.998,0.759,1.602c1.643-0.599,4.76-2.022,7.349-1.04c2.504,1.228-0.126,3.535-1.998,6.663
		c-0.691,1.251-2.289,2.951-3.353,4.482c-2.532,3.642-5.028,7.447-7.543,11.131c-1.365,1.999-1.614,2.876-4.469,6.396
		c-2.854,3.52-8.367,8.885-14.37,9.656c-3.288,0.423,0.036-1.779-1.504-2.833c-0.458,0.444-1.372,0.582-1.319,1.329
		c-0.894,0.746-0.488,2.382,0.362,2.996c2.144,1.551,5.71-0.385,7.623-1.474c2.995-1.705,5.801-3.771,8.177-6.273
		c5.476-5.769,9.77-13.174,14.007-19.873c1.29-2.038,2.417-3.695,3.782-5.673c1.365-1.976,2.633-3.787,3.223-3.977
		c1.817-0.321,3.082,2.092,3.531,3.49c0.597,1.864,0.373,3.866,0.02,5.754c-0.562,3.005-0.899,6.049-1.485,9.047
		c-0.706,3.603-1.149,6.964-0.851,10.638c0.219,2.707-0.105,5.841,2.124,7.844c1.687,1.516,4.274,2.128,5.631-0.182
		c0.72-1.228,1.063-2.696,1.323-4.083c0.634-3.413,1.082-6.944,0.973-10.416c-0.153-4.852-1.158-9.979-3.183-14.413
		c-0.817-1.788-1.825-3.14-1.663-5.203c0.191-2.431,1.148-4.785,1.758-7.13c0.732-2.816,1.542-5.845,2.9-8.432
		c0.486-0.926,0.965-2.11,1.95-2.598c1.555-0.769,3.123-1.312,4.508-2.39c3.447-2.679,6.86-5.44,10.476-7.784
		c5.669-3.676,11.111-7.544,17.039-10.846c3.095-1.725,6.106-3.596,9.202-5.321c1.351-0.753,2.719-1.443,4.013-2.289
		c1.037-0.679,2.169-1.561,3.448-1.668c-2.246,4.09-5.253,7.677-5.411,12.563c-0.215,6.677,7.375,11.018,12.433,13.848
		c1.52,0.851,3.125,1.342,4.723,2.081c5.772,2.669,14.992,4.708,17.26,11.57c1.144,3.463-0.314,6.631-2.226,9.441
		c-0.819,1.206-2.213,2.556-3.208,3.706c-1.249,1.443-2.618,2.8-4.149,3.943c-4.774,3.568-9.694,6.224-15.098,8.622
		c-6.392,2.835-13.175,5.066-20.189,5.55c-2.266,0.156-9.843,1.815-10.938-1.289c-0.59-1.678,3.961-2.205,3.477-3.873
		c-0.285-0.979-1.997,0.024-2.451,0.331c-1.269,0.858-2.451,2.383-2.527,3.966c-0.068,1.387,1.101,2.536,2.327,2.857
		c3.192,0.837,7.473-0.066,10.668-0.428c4.766-0.536,9.5-1.398,14.07-2.881c4.787-1.552,9.618-3.651,14.087-5.964
		c0.976-0.504,1.716-1.309,2.654-1.897c1.578-0.987,3.029-2.027,4.441-3.241c3.104-2.665,6.599-5.538,8.788-9.042
		C132.511,271.958,129.965,263.875,122.388,260.708 M109.487,221.796c0.179-0.137,0.854-0.729,0.854-0.729s1.242-1.358,2.534-2.052
		c2.516-1.35,2.685-2.038,7.837-3.057c5.153-1.02,4.834-0.638,7.62-0.571c2.788,0.065,2.716,0.375,3.201,0.653
		c0.484,0.281-1.396,0.346-2.108,0.499c-3.919,0.847-7.722,1.767-11.523,3.067c-3.122,1.068-6.147,2.392-9.257,3.482
		c-0.394,0.138-0.815,0.163-1.199,0.336C108.037,222.817,108.803,222.31,109.487,221.796 M53.047,249.127
		c1-2.791,2.696-5.969,3.677-7.985c0.981-2.017,5.436-9.276,8.559-14.396c1.137-1.862,4.479-7.258,5.144-7.313
		c1.427,0.495-0.46,2.996-0.46,2.996s-0.39,0.813-1.94,4.194l-7.031,13.309c-3.283,5.385-3.283,5.385-5.74,8.783
		c-2.457,3.396-1.574,3.004-2.949,3.6C52.35,251.24,52.686,250.138,53.047,249.127 M37.021,272.048
		c-0.76-0.43-0.526-0.262-0.76-0.43c-0.234-0.167-0.641-0.551-0.392-0.597c0.25-0.047,0.605-0.186,0.605-0.186
		s0.566-0.324,1.238-0.741c1.916-1.318,3.011-2.208,3.649-2.536c0.016-0.003,0.03-0.004,0.045-0.005
		c-0.169,0.67-0.162,0.437-1.12,2.002C37.781,272.477,37.781,272.477,37.021,272.048 M45.253,285.376
		c1.984,5.298,2.904,11.144,2.476,16.788c-0.151,1.988-1.629,11.239-4.801,9.225c-3.172-2.015-2.521-5.256-2.526-7.742
		c-0.007-3.738-0.529-3.651,1.018-12.439c1.546-8.787,1.459-10.303,2.042-9.254C44.046,283,44.845,284.288,45.253,285.376
		 M43.355,274.885c-0.462,1.95-0.432,2.055-1.096,2.275c-0.012,0.003-1.398-2.045-2.534-3.051c-1.491-0.949-0.607-1.33,1.365-4.052
		c1.727-2.188,0.07,0.015,1.74-2.35c2.031-2.389,3.07-3.548,3.07-3.548S43.818,272.936,43.355,274.885"/>
</g>
<g id="Layer_2">
	<path fill-rule="evenodd" clip-rule="evenodd" fill="#DC0032" d="M121.246,91.01c0.968-0.153,1.782-0.741,1.371-1.761
		c-0.507-1.26-3.351-0.831-3.666,0.376C118.662,90.735,120.068,91.195,121.246,91.01 M109.12,114.7
		c0.607,1.862,1.088,2.854,3.161,2.35c1.239-0.302,2.097-1.182,2.901-2.119c0.209-0.244,2.246-2.953,2.02-2.993
		c0.131,0.024,0.237-0.02,0.318-0.124c2.08,2.748,5.29-1.113,6.634-2.932c0.714-0.966,1.145-1.711,1.6-2.823
		c0.174-0.425,0.238-1.336,0.762-1.395c0.073,0.338,0.052,0.718,0.018,1.069c0.042-0.002-0.328,1.652-0.291,1.632
		c-0.2,1.225-0.491,0.947-0.053,2.193c0.571,1.63,1.424,0.23,1.96-0.413c0.776-0.931,1.108-1.672,1.639-2.744
		c0.763-1.545,1.283-3.623,2.644-4.763c0.431-0.362,0.749-0.412,1.079,0.023c0.613,0.809,0.259,2.583,0.207,3.509
		c-0.024,0.449-0.103,0.923-0.098,1.368c0.013,1.344,0.19,2.571,0.362,3.897c0.063,0.486,0.012,1.117,0.469,1.411
		c0.465,0.298,1.245,0.034,1.51-0.42c0.349-0.596-0.159-1.485-0.275-2.098c-0.313-1.659-0.06-3.354-0.181-5.028
		c-0.097-1.336,0.001-3.389-1.055-4.382c-1.272-1.197-2.952,0.019-3.722,1.179c-0.465,0.699-0.984,1.363-1.377,2.107
		c-0.294,0.558-0.269,1.27-0.665,1.768c-0.83-0.523,0.42-2.561-0.083-3.44c-1.225-2.137-3.005,0.769-3.429,1.842
		c-0.628,1.593-1.241,3.204-2.258,4.597c-0.673,0.921-1.68,2.226-2.768,2.654c-1.988,0.782-1.39-2.391-1.303-3.32
		c0.112-1.208,0.174-2.46,0.188-3.675c0.009-0.725-0.166-1.456-0.912-0.69c-1.176,1.206-0.853,3.501-1.159,5.057
		c-0.264,1.338-0.834,2.537-1.462,3.737c-0.487,0.933-3.079,4.756-4.406,3.296c-0.792-0.872-0.692-2.663-0.679-3.753
		c0.013-1.045,0.046-2.125,0.213-3.16c0.331-2.063,0.316-4.111,0.46-6.189c0.044-0.638,0.22-1.777,0.465-2.349
		c0.085-0.194,1.376-1.265,1.373-1.27c0.034,0.076,0.744-0.526,1.018-0.709c0.125-0.054,3.892-1.827,4.433-1.918
		c0.564-0.095,2.207,0.116,1.745-0.987c-0.246-0.587-0.852-0.584-1.392-0.518c-1.542,0.19-3.088,1.139-4.487,1.766
		c-0.841,0.378-1.977,1.31-2.768,1.791c0.149-0.091,0.776-2.953,0.819-3.242c0.099-0.651,0.147-1.701-0.778-1.664
		c-0.553,0.022-0.91,0.722-1.05,1.167c-0.438,1.392-0.047,2.897-0.476,4.289c-0.546,1.772-4.083,2.727-5.608,3.222
		c-1.102,0.357-2.638,1.212-2,2.634c1.227,2.73,4.422-2.383,6.02-2.077c1.955,0.374,0.817,4.136,0.588,5.495
		c-0.344,2.039-0.765,4.1-1.535,6.025c-0.417,1.043-0.644,2.204-1.144,3.206c-0.153,0.304-0.813,1.002-0.736,1.36
		c-0.428-1.983-0.842-3.815-1.66-5.699c-0.584-1.34-2.543-3.406-3.611-1.514c-0.706,1.253-0.819,2.739-1.295,4.073
		c-0.56,1.569-1.032,3.155-1.475,4.757c0,0-0.186,0.423-1.1,2.346c0.448-1.203-0.976,2.122-3.054,1.418
		c-1.462-0.495-1.556-0.793-1.491-2.331c0.082-1.954,1.33-4.305,0.029-6.114c-0.507-0.706-1.414-0.645-2.052-0.18
		c-0.813,0.593-0.905,1.541-0.906,2.478c-0.002,2.575,0.871,4.974-0.315,7.396c-0.815,1.668-2.412,3.83-4.559,2.873
		c-1.956-0.873-1.737-3.541-1.516-5.286c0.118-0.935,0.245-1.882,0.419-2.808c0.371-1.966,1.004-3.587-0.462-3.361
		c-0.882,0.136-1.265,1.88-1.409,2.545c-0.312,1.445-0.315,2.958-0.214,4.427c0.149,2.174,0.453,4.937,2.385,6.306
		c1.841,1.306,3.475,0.146,4.762-1.282c0.303-0.336,3.014-3.652,2.635-3.917c0.959,0.672,1.549,1.526,2.943,1.536
		c5.299,0.039,6.61-6.202,7.249-10.333c0.083-0.534,0.2-2.817,0.979-2.87c0.358-0.024,1.211,1.193,1.376,1.464
		c0.427,0.702,0.628,1.531,0.775,2.331c0.204,1.102,0.615,3.279-0.526,4.032c-0.324,0.214-0.585,0.115-0.937,0.104
		c-0.564-0.018-1.449,0.239-1.86,0.646c-0.504,0.501-0.319,1.48,0.173,1.915c1.141,1.011,2.266-0.216,3.262-0.632
		c1.834-0.769,3.008-2.743,3.65-4.532c0.215-0.598,0.569-1.266,0.703-1.853C108.583,115.611,108.749,115.017,109.12,114.7
		 M247.349,39.574c0.019,0,0.043-0.004,0.083-0.014c0.009-0.005,0.023-0.005,0.033-0.01c-0.024,0.005-0.055,0.01-0.083,0.015
		C247.367,39.57,247.357,39.57,247.349,39.574 M236.241,55.538c-0.032,0.045-0.06,0.084-0.08,0.116
		c-0.003,0.033-0.005,0.069-0.008,0.111c0.079-0.063,0.198-0.172,0.236-0.18C236.37,55.589,236.296,55.559,236.241,55.538
		 M233.829,40.956c0.034-0.069,0.067-0.133,0.102-0.194c0.004-0.01,0.009-0.02,0.014-0.031
		C233.829,40.736,233.85,40.865,233.829,40.956 M333.68,3.651c-1.415-1.778-3.037-2.903-5.183-3.36
		c-2.307-0.492-4.126-0.284-6.447,0.069c-2.717,0.413-5.354,1.16-7.952,2.05c-1.951,0.668-3.87,1.422-5.763,2.239
		c-6.077,2.624-12.062,5.465-17.908,8.581c-4.399,2.345-12.992,7.925-12.992,7.925s-2.681,1.46-3.953,2.399
		c-1.111,0.819-2.298,1.521-3.396,2.361c-0.635,0.487-2.316,2.108-2.613,0.471c-0.12-0.661-0.073-1.52,0.086-2.175
		c0.252-1.035,0.432-1.76,0.609-2.872c0.21-1.297,0.236-2.617,0.302-3.926c0.031-0.66-0.061-1.662-0.219-2.31
		c-0.366-1.491-1.489-1.932-2.056-0.125c-0.419,1.33-0.275,2.825-0.278,4.2c-0.006,1.637-0.132,3.267-0.341,4.891
		c-0.111,0.859-0.244,1.714-0.389,2.567c-0.057,0.322-0.13,1.731-0.404,1.926c-0.129,1.228-0.129,1.228-3.295,2.836
		c-1.611,0.817-3.247,1.591-4.911,2.291c-1.317,0.555-3.781,2.28-5.112,1.154c-0.918-0.78-0.753-2.663-0.71-3.72
		c0.11-2.743,0.784-5.412,1.433-8.064c0.818-3.343,0.382-5.478-0.703-4.894c-1.478,1.276-2.341,5.878-2.529,11.915
		c-0.187,6.036,1.062,5.266-2.15,6.938c-2.033,1.059-4.493,1.268-6.713,1.724c-5.04,1.036-5.508,0.821-6.16,2.02
		c-0.176,0.388-0.31,0.769-0.104,1.033c0-0.064,0.094-0.133,0.118,0c1.544,5.296,7.443,7.699,10.883,11.533
		c1.163,1.296,1.457,2.637,1.068,4.349c-0.527,2.319-2.717,7.348-5.652,7.342c-3.753-0.009-2.402-4.538-1.735-6.587
		c0.648-1.983,1.272-4.145-0.623-5.659c-2.908-2.326-3.077,3.32-3.074,5.017c0.004,3.334-1.334,11.949-6.505,11.141
		c-3.991-0.624-1.134-4.939-0.452-6.874c1.34-3.815,2.109-7.812,2.358-11.845c0.138-2.209,0.026-5.521-2.631-6.171
		c-1.259-0.308-1.935,0.574-2.44,1.578c-2.05,4.075-2.366,8.623-2.297,13.116c0.034,2.138,0.25,4.289,0.173,6.428
		c-0.076,2.074-1.17,3.734-2.361,5.485c-0.678,0.998-4.745,4.821-5.988,3.052c-0.312-0.446,0.197-2.06,0.198-2.606
		c0.004-1.159-0.075-3.518-1.324-3.998c-1.101-0.424-2.951,0.827-3.702,1.515c-0.838,0.768-0.945,3.152-1.185,4.186
		c-0.973,1.652-0.745,5.65-3.324,4.132c-2.63-1.546-0.271-5.032-2.575-6.404c-1.379-0.821-3.892-0.079-5.088,0.768
		c-1.418,1.006-2.317,2.581-3.34,3.952c-0.748,1.004-1.533,2.011-2.198,3.075c-1.672,2.677-5.016,6.508-7.699,8.2
		c-1.798,1.131-4.159,2.161-6.057,0.597c-1.85-1.527-2.247-4.876-0.716-7.199c2.964-4.498,6.438,2.498,6.262-0.411
		c-0.118-1.938-3.272-4.6-5.074-4.773c0.481,1.181-0.419,1.578-1.289,2.081c-1.075,0.619-1.67,1.536-2.087,2.706
		c-0.346,0.964-0.655,2.296-0.669,3.313c-0.031,2.502,1.084,6.341,3.506,7.472c1.973,0.923,4.091,0.439,5.904-0.641
		c1.335-0.796,2.455-2.325,3.513-3.436c1.02-1.071,1.857-2.299,2.875-3.37c0.922-0.973,1.666-2.146,2.646-3.058
		c0.427-0.397,1.931-2.589,2.057-2.025s0.657,5.324,3.471,5.294c1.677-0.019,2.679-1.637,3.241-3.02
		c0.337-0.827,0.621-1.354,0.838-2.766c1.56,0.624,3.04,3.252,5.391,1.57c1.508-1.078,1.723-4.012,1.927-5.72l0.266-1.626
		c0.198-0.859,1.51-2.876,2.241-1.561c-0.142,1.605-0.585,3.7-0.399,5.088c0.531,3.953,5.791,0.903,8.415-1.682
		c2.498-3.687,1.773-3.776,3.485-4.385c1.187-0.423,2.799,1.276,3.973,1.529c2.309,0.497,3.84-0.829,5.326-2.363
		c0.377-0.388,3.112-2.813,2.823-3.418c1.172,2.36,4.148,2.907,6.424,1.982c2.549-1.037,3.632-3.755,4.371-6.215
		c0.108-0.361,1.538-5.011,1.918-4.746c2.778,1.971,5.127,4.491,7.896,6.487c1.905,1.373,4.915,3.818,7.456,3.311
		c3.062-0.613,1.918-2.474,1.145-6.765c-0.39-2.554-0.489-5.397-0.489-5.397l1.059-15.123c0,0,0.711-6.129,1.177-6.38
		c0.045-0.024,0.469-1.501,0.719-1.76c0.503-0.523,1.165-0.865,1.753-1.275c1.732-1.206,3.473-2.447,5.199-3.673
		c5.638-4,10.897-7.117,16.943-10.432c1.808-0.99,3.726-1.751,5.596-2.611c3.425-1.574,6.646-3.549,10.036-5.191
		c3.497-1.694,7.154-2.675,10.878-3.717c2.137-0.599,4.396-0.871,6.575-0.754c2.022,0.108,4.342,0.304,5.967,1.653
		c0.783,0.65,2.302,2.269,0.812,2.893c-0.715,0.299-3.662-0.204-3.236,1.156c0.625,1.999,3.745,1.099,5.026,0.643
		C336.007,7.918,334.862,5.139,333.68,3.651 M199.458,80.428c-0.434,0.698-1.811-0.28-2.025-0.698
		c-0.353-0.684-0.359-1.698-0.317-2.45c0.005-0.09,0.012-0.183,0.021-0.276c0.143-1.497,0.772-3.235,2.065-4.073
		c0.203-0.132,2.439-0.626,2.374-0.3C201.037,75.397,200.723,78.39,199.458,80.428 M224.646,62.588
		c-0.458,0.033-0.246-2.609,0.025-4.945c0.197-1.688,0.429-3.217,0.461-3.464c0.314-2.27,0.566-5.307,2-7.182
		c0.248-0.324,0.925,1.666,0.94,1.77c0.13,0.832,0.006,1.754-0.081,2.585c-0.254,2.412-0.623,4.84-1.356,7.156
		C226.423,59.177,225.483,62.529,224.646,62.588 M236.414,59.871c-0.216,0.041-0.303-3.165-0.261-4.106
		c-0.081,0.065-0.118,0.079,0.008-0.111c0.003-0.062,0.009-0.113,0.016-0.134c0.004-0.005,0.031,0.005,0.064,0.018
		c0.08-0.113,0.19-0.265,0.348-0.475C237.965,51.778,238.755,57.646,236.414,59.871 M248.252,47.265
		c-0.04,1.425-0.28,4.752-2.52,4.127c-2.024-0.564-3.11-1.513-4.883-3.444c-1.771-1.932-2.324-2.566-3.279-3.62
		c-0.654-0.721-0.924-1.252-0.851-1.662c0.408-2.26,5.546-2.1,7.218-2.567c0.979-0.274,0.979-0.274,3.073-0.703
		C249.105,38.967,248.755,40.209,248.252,47.265 M263.342,62.583c-0.509,0.226-3.691-1.042-3.571-1.289
		c0.521-1.079,1.29-2.006,1.847-3.141c0.143-0.291,0.245-0.617,0.34-0.95c0.225-0.78,0.416-1.6,1.022-2.11
		c-0.356,0.3,0.243,2.346,0.588,4.835C263.911,62.417,264.58,62.032,263.342,62.583 M264.017,38.826c0,0-0.498,9.597-2.078,14.221
		c-0.779,2.281-1.488,5.906-4.437,6.186c-2.586,0.245-4.986-2.421-6.185-4.373c-1.294-2.112-1.237-4.682-1.197-7.096
		c-0.098-9.442,0.654-9.054,3.126-10.931c1.837-0.752,6.239-2.836,6.239-2.836l4.14-1.91c0.41,0.016,0.078-0.202,0.804-0.217
		C264.325,35.533,264.017,38.826,264.017,38.826 M127.776,164.43c-0.079,0.044-0.157,0.084-0.236,0.118
		C127.628,164.524,127.771,164.543,127.776,164.43 M186.364,103.91c-3.692-1.55-7.25-3.407-10.943-4.947
		c-9.044-3.772-20.328-7.99-26.562-15.997c-4.622-5.936-3.108-12.535,0.217-18.581c1.499-2.726,3.482-5.139,5.161-7.748
		c0.049,0.084-0.076,0.179-0.027,0.287c1.301-2.011,3.052-3.804,5.01-5.166c1.452-1.01,3.007-1.864,4.611-2.604
		c2.798-1.29,5.739-2.229,8.674-3.146c3.026-0.944,5.993-2.059,9.012-3.022c4.184-1.336,8.621-2.344,12.921-3.233
		c4.848-1.002,10.184-1.61,14.995-0.101c0.973,0.305,2.026,0.98,3.076,0.823c1.7-0.255,1.307-1.973,0.314-2.742
		c-0.904-0.701-2.123-0.94-3.194-1.259c-3.017-0.898-5.791-2.344-8.897-2.972c-3.187-0.643-6.468-0.74-9.708-0.647
		c-6.918,0.199-14.537,1.369-20.437,5.233c-2.432,1.593-4.665,3.487-6.887,5.361c-4.006,3.377-8.517,7.379-13.325,9.569
		c-9.066,4.131-14.997,7.774-19.364,10.321c-11.23,6.549-20.92,13.028-31.697,20.27c-4.015,2.698-7.627,5.934-11.376,8.981
		c-1.799,1.463-2.688,2.174-5.633,4.23c-2.945,2.056-2.146,1.461-5.116,2.563c0.487-3.018,3.625-5.549,5.321-7.956
		c2.322-3.294,4.263-6.839,6.613-10.114c2.881-4.015,4.359-6.563,7.92-12.262c3.562-5.698,6.673-12.418,9.609-18.687
		c1.579-3.371,3.775-7.52,3.676-11.334c-2.367-3.498-7.101,2.753-8.747,5.458c-4.494,7.388-9.727,14.42-13.695,22.115
		c-4.52,8.766-8.768,17.891-12.457,27.04c-1.115,2.765-2.062,5.604-3.533,8.209c-0.994,1.76-2.235,3.498-3.661,5.155
		c-4.727,5.493-11.491,10.095-18.031,11.63c-2.863,0.672-7.378-0.603-9.163,2.522c-0.564,0.987-0.573,3.055,1.157,2.449
		c2.502-0.918,7.247-3.095,11.189-1.592c3.815,1.88-0.191,5.408-3.041,10.195c-1.052,1.915-3.485,4.514-5.107,6.856
		c-3.855,5.571-7.656,11.394-11.486,17.029c-2.079,3.058-2.458,4.402-6.804,9.787c-4.347,5.384-12.743,13.592-21.883,14.773
		c-5.007,0.646,0.054-2.724-2.29-4.335c-0.698,0.679-2.089,0.89-2.009,2.032c-1.362,1.144-0.742,3.645,0.553,4.586
		c3.263,2.371,8.692-0.59,11.606-2.257c4.56-2.606,8.834-5.769,12.452-9.597c8.339-8.825,14.877-20.152,21.329-30.402
		c1.963-3.118,3.68-5.652,5.759-8.676c2.079-3.024,4.01-5.795,4.908-6.085c2.767-0.493,4.692,3.199,5.375,5.337
		c0.91,2.853,0.569,5.914,0.031,8.804c-0.855,4.597-1.368,9.253-2.262,13.841c-1.073,5.511-1.748,10.653-1.295,16.275
		c0.334,4.139-0.161,8.933,3.236,11.999c2.566,2.317,6.506,3.255,8.572-0.279c1.098-1.878,1.621-4.123,2.014-6.244
		c0.968-5.223,1.649-10.625,1.482-15.936c-0.233-7.422-1.762-15.267-4.846-22.051c-1.244-2.735-2.78-4.804-2.532-7.959
		c0.293-3.721,1.748-7.322,2.677-10.907c1.116-4.309,2.348-8.943,4.417-12.901c0.74-1.415,1.471-3.229,2.969-3.973
		c2.368-1.175,4.756-2.008,6.866-3.655c5.249-4.099,10.447-8.326,15.95-11.91c8.632-5.622,16.921-11.54,25.946-16.592
		c4.714-2.639,9.299-5.501,14.012-8.142c2.057-1.151,4.14-2.206,6.111-3.501c1.579-1.039,3.304-2.387,5.251-2.553
		c-3.421,6.258-8,11.746-8.24,19.222c-0.327,10.213,11.231,16.855,18.931,21.185c2.315,1.301,4.76,2.053,7.193,3.183
		c8.791,4.083,22.829,7.203,26.282,17.701c1.742,5.297-0.479,10.143-3.39,14.445c-1.248,1.842-3.371,3.907-4.885,5.668
		c-1.901,2.21-3.986,4.283-6.319,6.034c-7.269,5.457-14.762,9.522-22.991,13.189c-9.731,4.337-20.061,7.753-30.742,8.491
		c-3.448,0.237-14.986,2.777-16.653-1.973c-0.9-2.566,6.032-3.372,5.293-5.925c-0.433-1.497-3.04,0.038-3.732,0.507
		c-1.933,1.312-3.732,3.647-3.848,6.067c-0.103,2.123,1.678,3.881,3.544,4.372c4.861,1.279,11.38-0.103,16.245-0.654
		c7.256-0.821,14.467-2.139,21.425-4.407c7.288-2.376,14.646-5.587,21.45-9.124c1.487-0.773,2.613-2.002,4.043-2.903
		c2.402-1.512,4.611-3.104,6.762-4.959c4.728-4.076,10.05-8.472,13.385-13.835C201.777,121.124,197.902,108.755,186.364,103.91
		 M166.719,44.38c0.273-0.207,1.303-1.114,1.303-1.114s1.891-2.077,3.858-3.139c3.829-2.064,4.087-3.117,11.935-4.676
		c7.846-1.559,7.36-0.974,11.603-0.874c4.244,0.101,4.135,0.573,4.873,1.002c0.737,0.429-2.126,0.529-3.209,0.763
		c-5.968,1.293-11.759,2.703-17.547,4.692c-4.754,1.633-9.36,3.657-14.097,5.326c-0.6,0.212-1.24,0.251-1.826,0.515
		C164.511,45.945,165.679,45.168,166.719,44.38 M80.776,86.194c1.523-4.269,4.106-9.133,5.599-12.217
		c1.493-3.084,8.277-14.191,13.034-22.022c1.732-2.849,6.82-11.105,7.831-11.19c2.174,0.758-0.699,4.585-0.699,4.585
		s-0.595,1.245-2.955,6.416L92.88,72.126c-4.999,8.239-4.999,8.239-8.741,13.437c-3.741,5.197-2.397,4.597-4.491,5.508
		C79.715,89.427,80.225,87.739,80.776,86.194 M56.375,121.26c-1.158-0.657-0.801-0.4-1.158-0.657s-0.977-0.843-0.597-0.914
		c0.381-0.071,0.922-0.284,0.922-0.284s0.862-0.496,1.885-1.133c2.918-2.019,4.585-3.379,5.558-3.881
		c0.023-0.003,0.046-0.005,0.068-0.007c-0.257,1.025-0.246,0.667-1.706,3.064C57.532,121.916,57.532,121.916,56.375,121.26
		 M68.907,141.65c3.022,8.104,4.422,17.046,3.77,25.681c-0.23,3.043-2.479,17.197-7.309,14.114
		c-4.83-3.082-3.838-8.041-3.846-11.844c-0.01-5.719-0.806-5.586,1.549-19.03c2.355-13.445,2.223-15.763,3.111-14.159
		C67.07,138.014,68.287,139.985,68.907,141.65 M66.018,125.6c-0.705,2.983-0.657,3.143-1.67,3.48
		c-0.018,0.006-2.128-3.129-3.859-4.666c-2.269-1.452-0.922-2.034,2.08-6.2c2.629-3.345,0.106,0.022,2.649-3.594
		c3.093-3.654,4.675-5.428,4.675-5.428S66.723,122.616,66.018,125.6"/>
</g>
</svg>
