<?xml version="1.0" encoding="utf-8"?>
<!-- Generator: Adobe Illustrator 15.1.0, SVG Export Plug-In . SVG Version: 6.00 Build 0)  -->
<!DOCTYPE svg PUBLIC "-//W3C//DTD SVG 1.1//EN" "http://www.w3.org/Graphics/SVG/1.1/DTD/svg11.dtd">
<svg version="1.1" id="Layer_1" xmlns="http://www.w3.org/2000/svg" xmlns:xlink="http://www.w3.org/1999/xlink" x="0px" y="0px"
	 width="16px" height="33.181px" viewBox="0 0 16 33.181" enable-background="new 0 0 16 33.181" xml:space="preserve">
<g>
	<path fill="#A98B11" d="M11,9.903l2-1.371v2.148c0,0.544-0.197,1.013-0.593,1.408c-0.396,0.395-0.864,0.592-1.407,0.592H2
		c-0.543,0-1.012-0.197-1.407-0.592C0.197,11.693,0,11.225,0,10.681v-8c0-0.543,0.197-1.012,0.593-1.408
		C0.988,0.878,1.457,0.681,2,0.681h5.667v0.814c-1.21,0.186-2.234,0.581-3.074,1.186H2v8h9V9.903z M15.852,4.403
		C15.951,4.477,16,4.57,16,4.681c0,0.124-0.049,0.216-0.148,0.278L9.519,9.292c-0.05,0.037-0.111,0.056-0.185,0.056
		c-0.051,0-0.1-0.013-0.148-0.037C9.062,9.249,9,9.15,9,9.015V6.663c-0.716,0.012-1.374,0.07-1.972,0.176
		C6.429,6.943,5.96,7.055,5.621,7.172c-0.34,0.117-0.648,0.259-0.926,0.426S4.241,7.882,4.167,7.95
		C4.093,8.018,4.024,8.089,3.963,8.163L3.944,8.181C3.882,8.292,3.79,8.348,3.667,8.348H3.593C3.444,8.311,3.358,8.206,3.333,8.032
		c0-1.493,0.444-2.709,1.333-3.647C5.654,3.323,7.099,2.761,9,2.7V0.348c0-0.136,0.062-0.234,0.186-0.296
		C9.309-0.023,9.42-0.016,9.519,0.07L15.852,4.403z"/>
</g>
<g>
	<path fill="#A98B11" d="M1.614,18.295c1.076-1.076,2.371-1.614,3.886-1.614c1.516,0,2.811,0.538,3.886,1.614
		C10.461,19.37,11,20.666,11,22.181c0,0.955-0.235,1.852-0.707,2.692l-4.487,8.136C5.742,33.123,5.64,33.181,5.5,33.181
		c-0.141,0-0.242-0.058-0.306-0.172l-4.487-8.136C0.236,24.071,0,23.174,0,22.181C0,20.666,0.538,19.37,1.614,18.295z M4.039,23.642
		c0.401,0.4,0.888,0.602,1.461,0.602s1.06-0.201,1.461-0.602c0.4-0.4,0.602-0.889,0.602-1.461s-0.201-1.06-0.602-1.461
		c-0.401-0.4-0.888-0.602-1.461-0.602s-1.06,0.201-1.461,0.602c-0.401,0.401-0.602,0.889-0.602,1.461S3.638,23.241,4.039,23.642z"/>
</g>
</svg>
