<?xml version="1.0" encoding="utf-8"?>
<!-- Generator: Adobe Illustrator 15.1.0, SVG Export Plug-In . SVG Version: 6.00 Build 0)  -->
<!DOCTYPE svg PUBLIC "-//W3C//DTD SVG 1.1//EN" "http://www.w3.org/Graphics/SVG/1.1/DTD/svg11.dtd">
<svg version="1.1" id="Layer_1" xmlns="http://www.w3.org/2000/svg" xmlns:xlink="http://www.w3.org/1999/xlink" x="0px" y="0px"
	 width="50px" height="141px" viewBox="0 0 50 141" enable-background="new 0 0 50 141" xml:space="preserve">
<g>
	<path fill="#D12C3F" d="M1.565,1.565C2.608,0.521,3.864,0,5.333,0c1.469,0,2.725,0.521,3.769,1.565
		c1.043,1.043,1.565,2.299,1.565,3.769c0,0.926-0.229,1.796-0.686,2.611L5.63,15.833C5.568,15.944,5.469,16,5.333,16
		c-0.136,0-0.235-0.056-0.296-0.167L0.686,7.944C0.229,7.167,0,6.296,0,5.333C0,3.864,0.521,2.608,1.565,1.565z M3.917,6.75
		c0.389,0.389,0.861,0.583,1.417,0.583S6.361,7.139,6.75,6.75s0.583-0.861,0.583-1.417S7.139,4.305,6.75,3.916
		C6.361,3.528,5.889,3.333,5.333,3.333S4.306,3.528,3.917,3.917S3.333,4.778,3.333,5.333C3.333,5.889,3.528,6.361,3.917,6.75z"/>
</g>
<g>
	<path fill="#D12C3F" d="M11,29.562l2-1.371v2.148c0,0.543-0.198,1.012-0.593,1.407C12.012,32.143,11.543,32.34,11,32.34H2
		c-0.543,0-1.012-0.197-1.407-0.593C0.197,31.353,0,30.884,0,30.34v-8c0-0.543,0.197-1.012,0.593-1.408
		C0.988,20.538,1.457,20.34,2,20.34h5.667v0.814c-1.21,0.186-2.234,0.581-3.074,1.186H2v8h9V29.562z M15.852,24.062
		C15.951,24.136,16,24.229,16,24.34c0,0.124-0.049,0.216-0.148,0.278l-6.333,4.333c-0.049,0.037-0.111,0.056-0.185,0.056
		c-0.05,0-0.099-0.012-0.148-0.037C9.062,28.908,9,28.81,9,28.673v-2.352c-0.716,0.012-1.374,0.071-1.972,0.176
		c-0.599,0.105-1.068,0.216-1.407,0.333c-0.34,0.117-0.648,0.259-0.926,0.426c-0.278,0.167-0.454,0.284-0.528,0.352
		s-0.142,0.139-0.204,0.213L3.944,27.84c-0.062,0.111-0.154,0.167-0.278,0.167H3.593c-0.148-0.037-0.235-0.142-0.259-0.315
		c0-1.494,0.444-2.709,1.333-3.648C5.654,22.982,7.099,22.42,9,22.359v-2.352c0-0.136,0.062-0.234,0.185-0.296
		c0.124-0.074,0.234-0.067,0.333,0.019L15.852,24.062z"/>
</g>
<g>
	<path fill="#D12C3F" d="M12,75.994L1.058,86.948L0,85.891l9.896-9.896L0,66.11l1.058-1.058L12,75.994z"/>
</g>
<g>
	<path fill="#CE3242" d="M12,38.11l-9.896,9.896L12,57.89l-1.058,1.058L0,48.006l10.942-10.953L12,38.11z"/>
</g>
<g>
	<path fill="#FFFFFF" d="M11.584,92.509C13.918,91.503,16.379,91,18.965,91s5.047,0.503,7.381,1.509
		c2.334,1.007,4.348,2.353,6.035,4.041s3.034,3.7,4.041,6.034c1.006,2.335,1.508,4.795,1.508,7.381c0,4.58-1.464,8.621-4.391,12.123
		l15.947,15.975c0.342,0.324,0.513,0.729,0.513,1.213c0,0.502-0.162,0.916-0.485,1.24c-0.322,0.322-0.736,0.484-1.238,0.484
		c-0.484,0-0.889-0.172-1.213-0.512l-15.976-15.949c-3.502,2.928-7.543,4.393-12.123,4.393c-2.586,0-5.047-0.504-7.381-1.51
		c-2.335-1.006-4.347-2.354-6.034-4.041c-1.689-1.688-3.036-3.699-4.041-6.033C0.502,115.014,0,112.552,0,109.965
		c0-2.586,0.502-5.046,1.509-7.381c1.005-2.334,2.352-4.346,4.041-6.034C7.237,94.861,9.249,93.516,11.584,92.509z M18.965,94.448
		c-2.12,0-4.131,0.413-6.034,1.239c-1.904,0.826-3.556,1.922-4.957,3.285c-1.401,1.401-2.497,3.055-3.287,4.957
		c-0.827,1.904-1.239,3.916-1.239,6.034c0,2.12,0.413,4.132,1.239,6.035s1.921,3.556,3.287,4.957
		c1.401,1.399,3.053,2.496,4.957,3.286c1.903,0.826,3.915,1.238,6.034,1.238c2.119,0,4.131-0.412,6.035-1.238
		c1.902-0.825,3.557-1.922,4.957-3.286c1.4-1.401,2.496-3.054,3.286-4.957c0.825-1.903,1.239-3.915,1.239-6.035
		c0-2.118-0.414-4.13-1.239-6.034c-0.825-1.902-1.923-3.556-3.286-4.957c-1.4-1.399-3.055-2.494-4.957-3.285
		C23.097,94.861,21.084,94.448,18.965,94.448z"/>
</g>
</svg>
